<svg xmlns="http://www.w3.org/2000/svg" width="113.818" height="193.977" viewBox="0 0 113.818 193.977">
  <g id="_3" data-name="3" transform="translate(0 193.967) rotate(-90)">
    <path id="Path_979" data-name="Path 979" d="M921.214,516.626a3.477,3.477,0,1,1-3.456-3.456,3.477,3.477,0,0,1,3.456,3.456Z" transform="translate(-914.27 -513.17)" fill="#18ffff"/>
    <path id="Path_980" data-name="Path 980" d="M933.974,516.626a3.477,3.477,0,1,1-3.477-3.456,3.477,3.477,0,0,1,3.477,3.456Z" transform="translate(-900.304 -513.17)" fill="#18ffff"/>
    <path id="Path_981" data-name="Path 981" d="M946.724,516.626a3.477,3.477,0,1,1-3.456-3.456A3.477,3.477,0,0,1,946.724,516.626Z" transform="translate(-886.348 -513.17)" fill="#18ffff"/>
    <path id="Path_982" data-name="Path 982" d="M959.484,516.626a3.477,3.477,0,1,1-3.477-3.456,3.477,3.477,0,0,1,3.477,3.456Z" transform="translate(-872.382 -513.17)" fill="#18ffff"/>
    <path id="Path_983" data-name="Path 983" d="M972.234,516.626a3.477,3.477,0,1,1-3.456-3.456A3.477,3.477,0,0,1,972.234,516.626Z" transform="translate(-858.426 -513.17)" fill="#18ffff"/>
    <path id="Path_984" data-name="Path 984" d="M984.994,516.626a3.477,3.477,0,1,1-3.477-3.456,3.477,3.477,0,0,1,3.477,3.456Z" transform="translate(-844.46 -513.17)" fill="#18ffff"/>
    <path id="Path_985" data-name="Path 985" d="M997.744,516.626a3.477,3.477,0,1,1-3.477-3.456,3.477,3.477,0,0,1,3.477,3.456Z" transform="translate(-830.504 -513.17)" fill="#18ffff"/>
    <path id="Path_986" data-name="Path 986" d="M1010.5,516.626a3.477,3.477,0,1,1-3.477-3.456,3.477,3.477,0,0,1,3.477,3.456Z" transform="translate(-816.538 -513.17)" fill="#18ffff"/>
    <circle id="Ellipse_316" data-name="Ellipse 316" cx="3.477" cy="3.477" r="3.477" transform="translate(0.011 26.706)" fill="#18ffff"/>
    <circle id="Ellipse_317" data-name="Ellipse 317" cx="3.477" cy="3.477" r="3.477" transform="translate(26.716 26.706)" fill="#18ffff"/>
    <path id="Path_987" data-name="Path 987" d="M946.724,529.4a3.477,3.477,0,1,1-3.456-3.477,3.477,3.477,0,0,1,3.456,3.477Z" transform="translate(-886.348 -499.215)" fill="#18ffff"/>
    <circle id="Ellipse_318" data-name="Ellipse 318" cx="3.477" cy="3.477" r="3.477" transform="translate(80.148 26.706)" fill="#18ffff"/>
    <path id="Path_988" data-name="Path 988" d="M972.234,529.4a3.477,3.477,0,1,1-3.456-3.477,3.478,3.478,0,0,1,3.456,3.477Z" transform="translate(-858.426 -499.215)" fill="#18ffff"/>
    <circle id="Ellipse_319" data-name="Ellipse 319" cx="3.477" cy="3.477" r="3.477" transform="translate(133.58 26.706)" fill="#18ffff"/>
    <circle id="Ellipse_320" data-name="Ellipse 320" cx="3.477" cy="3.477" r="3.477" transform="translate(160.307 26.706)" fill="#18ffff"/>
    <path id="Path_989" data-name="Path 989" d="M1010.5,529.4a3.477,3.477,0,1,1-3.477-3.477A3.477,3.477,0,0,1,1010.5,529.4Z" transform="translate(-816.538 -499.214)" fill="#18ffff"/>
    <path id="Path_990" data-name="Path 990" d="M921.214,542.136a3.477,3.477,0,1,1-3.456-3.456,3.477,3.477,0,0,1,3.456,3.456Z" transform="translate(-914.27 -485.248)" fill="#18ffff"/>
    <path id="Path_991" data-name="Path 991" d="M933.974,542.136a3.477,3.477,0,1,1-3.477-3.456,3.477,3.477,0,0,1,3.477,3.456Z" transform="translate(-900.304 -485.248)" fill="#18ffff"/>
    <path id="Path_992" data-name="Path 992" d="M946.724,542.136a3.477,3.477,0,1,1-3.456-3.456A3.478,3.478,0,0,1,946.724,542.136Z" transform="translate(-886.348 -485.248)" fill="#18ffff"/>
    <path id="Path_993" data-name="Path 993" d="M959.484,542.136a3.477,3.477,0,1,1-3.477-3.456,3.477,3.477,0,0,1,3.477,3.456Z" transform="translate(-872.382 -485.248)" fill="#18ffff"/>
    <path id="Path_994" data-name="Path 994" d="M972.234,542.136a3.477,3.477,0,1,1-3.456-3.456A3.478,3.478,0,0,1,972.234,542.136Z" transform="translate(-858.426 -485.248)" fill="#18ffff"/>
    <path id="Path_995" data-name="Path 995" d="M984.994,542.136a3.477,3.477,0,1,1-3.477-3.456,3.477,3.477,0,0,1,3.477,3.456Z" transform="translate(-844.46 -485.248)" fill="#18ffff"/>
    <path id="Path_996" data-name="Path 996" d="M997.744,542.136a3.477,3.477,0,1,1-3.477-3.456,3.477,3.477,0,0,1,3.477,3.456Z" transform="translate(-830.504 -485.248)" fill="#18ffff"/>
    <path id="Path_997" data-name="Path 997" d="M1010.5,542.136a3.477,3.477,0,1,1-3.477-3.456,3.477,3.477,0,0,1,3.477,3.456Z" transform="translate(-816.538 -485.248)" fill="#18ffff"/>
    <circle id="Ellipse_321" data-name="Ellipse 321" cx="3.477" cy="3.477" r="3.477" transform="translate(0.011 80.138)" fill="#18ffff"/>
    <circle id="Ellipse_322" data-name="Ellipse 322" cx="3.477" cy="3.477" r="3.477" transform="translate(26.716 80.138)" fill="#18ffff"/>
    <path id="Path_998" data-name="Path 998" d="M946.724,554.907a3.477,3.477,0,1,1-3.456-3.477,3.478,3.478,0,0,1,3.456,3.477Z" transform="translate(-886.348 -471.292)" fill="#18ffff"/>
    <circle id="Ellipse_323" data-name="Ellipse 323" cx="3.477" cy="3.477" r="3.477" transform="translate(80.148 80.138)" fill="#18ffff"/>
    <path id="Path_999" data-name="Path 999" d="M972.234,554.907a3.477,3.477,0,1,1-3.456-3.477,3.478,3.478,0,0,1,3.456,3.477Z" transform="translate(-858.426 -471.292)" fill="#18ffff"/>
    <circle id="Ellipse_324" data-name="Ellipse 324" cx="3.477" cy="3.477" r="3.477" transform="translate(133.58 80.138)" fill="#18ffff"/>
    <circle id="Ellipse_325" data-name="Ellipse 325" cx="3.477" cy="3.477" r="3.477" transform="translate(160.307 80.138)" fill="#18ffff"/>
    <path id="Path_1000" data-name="Path 1000" d="M1010.5,554.907a3.477,3.477,0,1,1-3.477-3.477A3.477,3.477,0,0,1,1010.5,554.907Z" transform="translate(-816.538 -471.292)" fill="#18ffff"/>
    <circle id="Ellipse_326" data-name="Ellipse 326" cx="3.477" cy="3.477" r="3.477" transform="translate(0.011 106.864)" fill="#18ffff"/>
    <circle id="Ellipse_327" data-name="Ellipse 327" cx="3.477" cy="3.477" r="3.477" transform="translate(26.716 106.864)" fill="#18ffff"/>
    <path id="Path_1001" data-name="Path 1001" d="M946.724,567.646a3.477,3.477,0,1,1-3.456-3.456A3.477,3.477,0,0,1,946.724,567.646Z" transform="translate(-886.348 -457.326)" fill="#18ffff"/>
    <circle id="Ellipse_328" data-name="Ellipse 328" cx="3.477" cy="3.477" r="3.477" transform="translate(80.148 106.864)" fill="#18ffff"/>
    <path id="Path_1002" data-name="Path 1002" d="M972.234,567.646a3.477,3.477,0,1,1-3.456-3.456A3.477,3.477,0,0,1,972.234,567.646Z" transform="translate(-858.426 -457.326)" fill="#18ffff"/>
    <circle id="Ellipse_329" data-name="Ellipse 329" cx="3.477" cy="3.477" r="3.477" transform="translate(133.58 106.864)" fill="#18ffff"/>
    <circle id="Ellipse_330" data-name="Ellipse 330" cx="3.477" cy="3.477" r="3.477" transform="translate(160.307 106.864)" fill="#18ffff"/>
    <path id="Path_1003" data-name="Path 1003" d="M1010.5,567.646a3.477,3.477,0,1,1-3.477-3.456A3.477,3.477,0,0,1,1010.5,567.646Z" transform="translate(-816.538 -457.326)" fill="#18ffff"/>
  </g>
</svg>
