<svg xmlns="http://www.w3.org/2000/svg" width="15.67" height="14.955" viewBox="0 0 15.67 14.955">
  <g id="coding" transform="translate(0.2 -11.796)">
    <g id="Path_941" data-name="Path 941" transform="translate(-57.951 -41.984)">
      <path d="M 60.74198150634766 57.38817977905273 C 60.13048934936523 57.38817977905273 59.63299942016602 56.890869140625 59.63299942016602 56.27959060668945 C 59.63299942016602 55.66831207275391 60.13048934936523 55.17100143432617 60.74198150634766 55.17100143432617 C 61.35394287109375 55.17100143432617 61.85180282592773 55.66831207275391 61.85180282592773 56.27959060668945 C 61.85180282592773 56.890869140625 61.35394287109375 57.38817977905273 60.74198150634766 57.38817977905273 Z M 60.74198150634766 55.97254180908203 C 60.57246017456055 55.97254180908203 60.43453979492188 56.11027908325195 60.43453979492188 56.27959060668945 C 60.43453979492188 56.44890975952148 60.57246017456055 56.586669921875 60.74198150634766 56.586669921875 C 60.91197967529297 56.586669921875 61.05029296875 56.44892883300781 61.05029296875 56.27962112426758 C 61.05029296875 56.11030197143555 60.91197967529297 55.97254180908203 60.74198150634766 55.97254180908203 Z" stroke="none"/>
      <path d="M 60.74198150634766 55.27099990844727 C 60.18563079833984 55.27099990844727 59.73300170898438 55.72346878051758 59.73300170898438 56.27959060668945 C 59.73300170898438 56.83571243286133 60.18563079833984 57.28818130493164 60.74198150634766 57.28818130493164 C 61.29878997802734 57.28818130493164 61.75180053710938 56.83571243286133 61.75180053710938 56.27959060668945 C 61.75180053710938 55.72346878051758 61.29878997802734 55.27099990844727 60.74198150634766 55.27099990844727 M 60.74198150634766 56.68667221069336 C 60.51731109619141 56.68667221069336 60.33454132080078 56.50405120849609 60.33454132080078 56.27959060668945 C 60.33454132080078 56.05512237548828 60.51731109619141 55.87253952026367 60.74198150634766 55.87253952026367 C 60.96710205078125 55.87253952026367 61.15029144287109 56.05516052246094 61.15029144287109 56.27962112426758 C 61.15029144287109 56.50408172607422 60.96710205078125 56.68667221069336 60.74198150634766 56.68667221069336 M 60.74198150634766 55.07099914550781 C 61.40908050537109 55.07099914550781 61.95180130004883 55.6131706237793 61.95180130004883 56.27959060668945 C 61.95180130004883 56.94601058959961 61.40908050537109 57.48818206787109 60.74198150634766 57.48818206787109 C 60.07535171508789 57.48818206787109 59.53300094604492 56.94601058959961 59.53300094604492 56.27959060668945 C 59.53300094604492 55.6131706237793 60.07535171508789 55.07099914550781 60.74198150634766 55.07099914550781 Z M 60.74198150634766 56.48667144775391 C 60.85684204101563 56.48667144775391 60.95029067993164 56.39379119873047 60.95029067993164 56.27962112426758 C 60.95029067993164 56.16543960571289 60.85684204101563 56.07254028320313 60.74198150634766 56.07254028320313 C 60.62760162353516 56.07254028320313 60.53454208374023 56.16542053222656 60.53454208374023 56.27959060668945 C 60.53454208374023 56.39377212524414 60.62760162353516 56.48667144775391 60.74198150634766 56.48667144775391 Z" stroke="none" fill="#000"/>
    </g>
    <g id="Path_942" data-name="Path 942" transform="translate(-258.168 -41.984)">
      <path d="M 269.7811889648438 57.38817977905273 L 267.1139526367188 57.38817977905273 C 266.5024719238281 57.38817977905273 266.0049743652344 56.890869140625 266.0049743652344 56.27959060668945 C 266.0049743652344 55.66831207275391 266.5024719238281 55.17100143432617 267.1139526367188 55.17100143432617 L 269.7811889648438 55.17100143432617 C 270.3927001953125 55.17100143432617 270.8901977539063 55.66831207275391 270.8901977539063 56.27959060668945 C 270.8901977539063 56.890869140625 270.3927001953125 57.38817977905273 269.7811889648438 57.38817977905273 Z M 267.1139526367188 55.97249984741211 C 266.9444274902344 55.97249984741211 266.8065490722656 56.11026000976563 266.8065490722656 56.27959060668945 C 266.8065490722656 56.44890975952148 266.9444274902344 56.586669921875 267.1139526367188 56.586669921875 L 269.7811889648438 56.586669921875 C 269.9507141113281 56.586669921875 270.088623046875 56.44890975952148 270.088623046875 56.27959060668945 C 270.088623046875 56.11026000976563 269.9507141113281 55.97249984741211 269.7811889648438 55.97249984741211 L 267.1139526367188 55.97249984741211 Z" stroke="none"/>
      <path d="M 267.1139526367188 55.27099990844727 C 266.5576171875 55.27099990844727 266.10498046875 55.72346878051758 266.10498046875 56.27959060668945 C 266.10498046875 56.83571243286133 266.5576171875 57.28818130493164 267.1139526367188 57.28818130493164 L 269.7811889648438 57.28818130493164 C 270.3375549316406 57.28818130493164 270.7901916503906 56.83571243286133 270.7901916503906 56.27959060668945 C 270.7901916503906 55.72346878051758 270.3375549316406 55.27099990844727 269.7811889648438 55.27099990844727 L 267.1139526367188 55.27099990844727 M 269.7811889648438 56.68667221069336 L 267.1139526367188 56.68667221069336 C 266.8893127441406 56.68667221069336 266.70654296875 56.50405120849609 266.70654296875 56.27959060668945 C 266.70654296875 56.05512237548828 266.8893432617188 55.87250137329102 267.1139526367188 55.87250137329102 L 269.7811889648438 55.87250137329102 C 270.005859375 55.87250137329102 270.1886291503906 56.05512237548828 270.1886291503906 56.27959060668945 C 270.1886291503906 56.50405120849609 270.005859375 56.68667221069336 269.7811889648438 56.68667221069336 M 267.1139526367188 55.07099914550781 L 269.7811889648438 55.07099914550781 C 270.4478454589844 55.07099914550781 270.9902038574219 55.6131706237793 270.9902038574219 56.27959060668945 C 270.9902038574219 56.94601058959961 270.4478454589844 57.48818206787109 269.7811889648438 57.48818206787109 L 267.1139526367188 57.48818206787109 C 266.4473266601563 57.48818206787109 265.9049682617188 56.94601058959961 265.9049682617188 56.27959060668945 C 265.9049682617188 55.6131706237793 266.4473266601563 55.07099914550781 267.1139526367188 55.07099914550781 Z M 269.7811889648438 56.48667144775391 C 269.8955688476563 56.48667144775391 269.9886169433594 56.39377212524414 269.9886169433594 56.27959060668945 C 269.9886169433594 56.16540145874023 269.8955688476563 56.07250213623047 269.7811889648438 56.07250213623047 L 267.1139526367188 56.07250213623047 C 266.9995727539063 56.07250213623047 266.9065551757813 56.16540145874023 266.9065551757813 56.27959060668945 C 266.9065551757813 56.39377212524414 266.9995727539063 56.48667144775391 267.1139526367188 56.48667144775391 L 269.7811889648438 56.48667144775391 Z" stroke="none" fill="#000"/>
    </g>
    <g id="Path_943" data-name="Path 943" transform="translate(-143.009 -41.984)">
      <path d="M 148.4139862060547 57.38817977905273 C 147.802490234375 57.38817977905273 147.3049926757813 56.890869140625 147.3049926757813 56.27959060668945 C 147.3049926757813 55.66831207275391 147.802490234375 55.17100143432617 148.4139862060547 55.17100143432617 C 149.0259399414063 55.17100143432617 149.5238037109375 55.66831207275391 149.5238037109375 56.27959060668945 C 149.5238037109375 56.890869140625 149.0259399414063 57.38817977905273 148.4139862060547 57.38817977905273 Z M 148.4139862060547 55.97249984741211 C 148.2444610595703 55.97249984741211 148.1065521240234 56.11026000976563 148.1065521240234 56.27959060668945 C 148.1065521240234 56.44890975952148 148.2444610595703 56.586669921875 148.4139862060547 56.586669921875 C 148.583984375 56.586669921875 148.7222747802734 56.44890975952148 148.7222747802734 56.27959060668945 C 148.7222747802734 56.11026000976563 148.583984375 55.97249984741211 148.4139862060547 55.97249984741211 Z" stroke="none"/>
      <path d="M 148.4139862060547 55.27099990844727 C 147.8576202392578 55.27099990844727 147.4049987792969 55.72346878051758 147.4049987792969 56.27959060668945 C 147.4049987792969 56.83571243286133 147.8576202392578 57.28818130493164 148.4139862060547 57.28818130493164 C 148.9707946777344 57.28818130493164 149.4237976074219 56.83571243286133 149.4237976074219 56.27959060668945 C 149.4237976074219 55.72346878051758 148.9707946777344 55.27099990844727 148.4139862060547 55.27099990844727 M 148.4139862060547 56.68667221069336 C 148.1893157958984 56.68667221069336 148.0065460205078 56.50405120849609 148.0065460205078 56.27959060668945 C 148.0065460205078 56.05512237548828 148.1893463134766 55.87250137329102 148.4139862060547 55.87250137329102 C 148.6390991210938 55.87250137329102 148.8222808837891 56.05512237548828 148.8222808837891 56.27959060668945 C 148.8222808837891 56.50405120849609 148.6390991210938 56.68667221069336 148.4139862060547 56.68667221069336 M 148.4139862060547 55.07099914550781 C 149.0810852050781 55.07099914550781 149.6237945556641 55.6131706237793 149.6237945556641 56.27959060668945 C 149.6237945556641 56.94601058959961 149.0810852050781 57.48818206787109 148.4139862060547 57.48818206787109 C 147.7473449707031 57.48818206787109 147.2050018310547 56.94601058959961 147.2050018310547 56.27959060668945 C 147.2050018310547 55.6131706237793 147.7473449707031 55.07099914550781 148.4139862060547 55.07099914550781 Z M 148.4139862060547 56.48667144775391 C 148.5288391113281 56.48667144775391 148.6222839355469 56.39377212524414 148.6222839355469 56.27959060668945 C 148.6222839355469 56.16540145874023 148.5288391113281 56.07250213623047 148.4139862060547 56.07250213623047 C 148.2996063232422 56.07250213623047 148.20654296875 56.16540145874023 148.20654296875 56.27959060668945 C 148.20654296875 56.39377212524414 148.2996063232422 56.48667144775391 148.4139862060547 56.48667144775391 Z" stroke="none" fill="#000"/>
    </g>
    <g id="Path_944" data-name="Path 944" transform="translate(-128.408 -203.9)">
      <path d="M 132.6567687988281 225.3632354736328 C 132.6255035400391 225.3632354736328 132.5940551757813 225.3595275878906 132.5633239746094 225.3521728515625 C 132.3484344482422 225.3008422851563 132.2153625488281 225.0842132568359 132.2667083740234 224.8692626953125 L 132.8633880615234 222.3723449707031 C 132.9066619873047 222.1911773681641 133.0668334960938 222.0646362304688 133.2528686523438 222.0646362304688 C 133.2842254638672 222.0646362304688 133.315673828125 222.0683746337891 133.3463745117188 222.0757141113281 C 133.4504547119141 222.1006011962891 133.5386505126953 222.1645355224609 133.5946655273438 222.2557373046875 C 133.6506958007813 222.3469543457031 133.6678466796875 222.4545288085938 133.6429595947266 222.5586547851563 L 133.0462799072266 225.0555419921875 C 133.0029907226563 225.2367095947266 132.8428039550781 225.3632354736328 132.6567687988281 225.3632354736328 Z" stroke="none"/>
      <path d="M 133.2528686523438 222.1646423339844 C 133.1169281005859 222.1646270751953 132.9936370849609 222.2575073242188 132.9606475830078 222.3955841064453 L 132.3639678955078 224.8924865722656 C 132.3253784179688 225.0540466308594 132.4250183105469 225.2163238525391 132.5865783691406 225.2549133300781 C 132.6100921630859 225.2605285644531 132.6336212158203 225.2632446289063 132.6567687988281 225.2632446289063 C 132.7927398681641 225.2632446289063 132.9160308837891 225.1703491210938 132.9490203857422 225.0323028564453 L 133.5457000732422 222.535400390625 C 133.5843200683594 222.3738403320313 133.4846496582031 222.2115936279297 133.3230895996094 222.1729736328125 C 133.2995758056641 222.1673431396484 133.2760314941406 222.1646423339844 133.2528686523438 222.1646423339844 M 133.2528533935547 221.9646453857422 C 133.2920379638672 221.9646453857422 133.3313446044922 221.9692840576172 133.3696746826172 221.9784698486328 C 133.4996795654297 222.0095520019531 133.6098785400391 222.0894470214844 133.6798858642578 222.2033996582031 C 133.7498931884766 222.3173828125 133.7713165283203 222.4517974853516 133.7402191162109 222.5818939208984 L 133.1435394287109 225.0787811279297 C 133.0894470214844 225.3051452636719 132.8892822265625 225.4632415771484 132.6567687988281 225.4632415771484 C 132.61767578125 225.4632415771484 132.5784149169922 225.4585876464844 132.5400848388672 225.4494323730469 C 132.2715759277344 225.3852844238281 132.1052856445313 225.1145935058594 132.16943359375 224.8460235595703 L 132.7661285400391 222.3491058349609 C 132.8201904296875 222.1227416992188 133.0203399658203 221.9646453857422 133.2528533935547 221.9646453857422 Z" stroke="none" fill="#000"/>
    </g>
    <g id="Path_945" data-name="Path 945" transform="translate(-192.519 -211.239)">
      <path d="M 198.7379302978516 232.4763793945313 C 198.6395568847656 232.4763793945313 198.544921875 232.4403228759766 198.4714660644531 232.3748626708984 C 198.3064880371094 232.2279205322266 198.2918090820313 231.9740905761719 198.4387512207031 231.8090209960938 L 199.1125335693359 231.0526580810547 L 198.4387664794922 230.2963256835938 C 198.3675689697266 230.2164154052734 198.3317413330078 230.113525390625 198.3379058837891 230.0066528320313 C 198.3440856933594 229.8997802734375 198.3915252685547 229.8016967773438 198.4714813232422 229.7304840087891 C 198.5449523925781 229.6650390625 198.6395874023438 229.6289825439453 198.7379302978516 229.6289825439453 C 198.8522186279297 229.6289825439453 198.9613494873047 229.6779022216797 199.0373077392578 229.7631988525391 L 199.8816070556641 230.7109375 C 200.0536346435547 230.9024353027344 200.0532684326172 231.2033538818359 199.8804473876953 231.3957061767578 L 199.0373382568359 232.3421783447266 C 198.9613494873047 232.4274597167969 198.8522186279297 232.4763793945313 198.7379302978516 232.4763793945313 Z" stroke="none"/>
      <path d="M 198.7379302978516 232.3763732910156 C 198.8207702636719 232.3763732910156 198.9032287597656 232.3423767089844 198.9626770019531 232.2756652832031 L 199.8060607910156 231.3288879394531 C 199.9452209472656 231.1739807128906 199.9452209472656 230.9313812255859 199.8069305419922 230.7774658203125 L 198.962646484375 229.8297119140625 C 198.9032135009766 229.7629852294922 198.8207397460938 229.7289886474609 198.7379302978516 229.7289886474609 C 198.666748046875 229.7289886474609 198.5953063964844 229.7541046142578 198.5379943847656 229.8051605224609 C 198.4139099121094 229.9156646728516 198.4029388427734 230.1058044433594 198.5134429931641 230.2298126220703 L 199.2464599609375 231.0526580810547 L 198.5134429931641 231.8755187988281 C 198.4029693603516 231.9996032714844 198.4139404296875 232.1897277832031 198.5379943847656 232.3002014160156 C 198.5953063964844 232.3512725830078 198.6667785644531 232.3763732910156 198.7379302978516 232.3763732910156 M 198.7379302978516 232.5763702392578 C 198.614990234375 232.5763702392578 198.4967346191406 232.5313262939453 198.4049377441406 232.4495239257813 C 198.1988067626953 232.2659454345703 198.1804504394531 231.9487609863281 198.3640594482422 231.7425384521484 L 198.9786224365234 231.0526580810547 L 198.3641052246094 230.3628387451172 C 198.2751312255859 230.2630004882813 198.2303619384766 230.1344451904297 198.2380828857422 230.0008850097656 C 198.2458038330078 229.8673400878906 198.3050689697266 229.7447814941406 198.4049835205078 229.6558074951172 C 198.4967651367188 229.5740356445313 198.6150207519531 229.5289764404297 198.7379302978516 229.5289764404297 C 198.8807373046875 229.5289764404297 199.0170745849609 229.5901184082031 199.1119995117188 229.6966857910156 L 199.9562683105469 230.6444244384766 C 200.1616973876953 230.8730773925781 200.1613159179688 231.2327117919922 199.9548492431641 231.4625396728516 L 199.1120147705078 232.40869140625 C 199.0170593261719 232.5152587890625 198.8807067871094 232.5763702392578 198.7379302978516 232.5763702392578 Z" stroke="none" fill="#000"/>
    </g>
    <g id="Path_946" data-name="Path 946" transform="translate(-55.353 -211.24)">
      <path d="M 58.22768402099609 232.4776611328125 C 58.11336517333984 232.4776611328125 58.00423431396484 232.4287414550781 57.92827224731445 232.3434600830078 L 57.08399200439453 231.3957214355469 C 56.91178512573242 231.2042388916016 56.91219329833984 230.9032287597656 57.08526229858398 230.7108001708984 L 57.92824172973633 229.7644805908203 C 58.00426483154297 229.6791839599609 58.1133918762207 229.6302795410156 58.22765350341797 229.6302795410156 C 58.32598495483398 229.6302795410156 58.42059326171875 229.6663208007813 58.49407196044922 229.7317810058594 C 58.65909194946289 229.8786926269531 58.67381286621094 230.1325378417969 58.52686309814453 230.297607421875 L 57.85308837890625 231.0539855957031 L 58.5268440246582 231.8103179931641 C 58.59805297851563 231.8902435302734 58.63387298583984 231.9931182861328 58.62770462036133 232.0999908447266 C 58.62152481079102 232.2068786621094 58.57409286499023 232.3049468994141 58.49413299560547 232.3761596679688 C 58.42069244384766 232.4416046142578 58.32605361938477 232.4776611328125 58.22768402099609 232.4776611328125 Z" stroke="none"/>
      <path d="M 58.22765731811523 229.7302703857422 C 58.14482116699219 229.7302703857422 58.06236267089844 229.7642974853516 58.00291442871094 229.8309936523438 L 57.15961456298828 230.7776641845703 C 57.0202751159668 230.9326019287109 57.0202751159668 231.1753234863281 57.15866470336914 231.3291931152344 L 58.00295257568359 232.2769470214844 C 58.06239318847656 232.3436889648438 58.14482498168945 232.3776550292969 58.22768402099609 232.3776550292969 C 58.29884338378906 232.3776550292969 58.37033462524414 232.3525390625 58.4276237487793 232.3014831542969 C 58.55170440673828 232.1909790039063 58.56267166137695 232.0008544921875 58.45217514038086 231.8768310546875 L 57.71916198730469 231.0539855957031 L 58.45217514038086 230.2311248779297 C 58.56261444091797 230.1070556640625 58.55164337158203 229.9169158935547 58.42756271362305 229.8064422607422 C 58.3702392578125 229.7553863525391 58.29880523681641 229.7302856445313 58.22765731811523 229.7302703857422 M 58.22765350341797 229.5302734375 L 58.22768402099609 229.5302734375 C 58.3505744934082 229.5302886962891 58.46880340576172 229.5753326416016 58.56059265136719 229.6571044921875 C 58.76677322387695 229.8406677246094 58.78516387939453 230.1578369140625 58.6015625 230.3641052246094 L 57.98700714111328 231.0539855957031 L 58.60151290893555 231.7438049316406 C 58.69049453735352 231.8436584472656 58.73525238037109 231.9722137451172 58.72753524780273 232.1057586669922 C 58.71981430053711 232.2393035888672 58.66054153442383 232.3618469238281 58.56064224243164 232.4508361816406 C 58.4688835144043 232.5326080322266 58.35062408447266 232.5776519775391 58.22768402099609 232.5776519775391 C 58.08486175537109 232.5776519775391 57.94851303100586 232.5165405273438 57.85360336303711 232.4099578857422 L 57.00932312011719 231.4622344970703 C 56.80370330810547 231.2336120605469 56.80412292480469 230.8738708496094 57.01090240478516 230.6439208984375 L 57.85357284545898 229.6979675292969 C 57.94857406616211 229.5913696289063 58.08490371704102 229.5302734375 58.22765350341797 229.5302734375 Z" stroke="none" fill="#000"/>
    </g>
    <g id="Path_947" data-name="Path 947">
      <path d="M 11.70068645477295 26.65080070495605 L 11.15557670593262 26.65080070495605 C 10.72907638549805 26.65080070495605 10.3820972442627 26.30353164672852 10.3820972442627 25.87667083740234 L 10.3820972442627 25.83312797546387 C 10.2373161315918 25.78470420837402 10.09510040283203 25.72575378417969 9.957710266113281 25.65722846984863 L 9.928656578063965 25.6862621307373 C 9.782676696777344 25.8321704864502 9.588296890258789 25.91254043579102 9.381346702575684 25.91254043579102 C 9.173296928405762 25.91224098205566 8.979247093200684 25.83160209655762 8.833827018737793 25.68546104431152 L 8.44926643371582 25.30105209350586 C 8.148346900939941 25.0003604888916 8.147966384887695 24.50994110107422 8.448436737060547 24.20785140991211 L 8.478233337402344 24.17819023132324 C 8.410097122192383 24.04200553894043 8.35130786895752 23.90054512023926 8.30278491973877 23.75601196289063 L 8.260167121887207 23.75601196289063 L 5.840576648712158 23.75601196289063 C 5.6195969581604 23.75601196289063 5.439816951751709 23.57623100280762 5.439816951751709 23.35526084899902 C 5.439816951751709 23.13428115844727 5.6195969581604 22.95450210571289 5.840576648712158 22.95450210571289 L 7.486716747283936 22.95450210571289 L 7.486716747283936 22.43799209594727 C 7.486716747283936 22.01161193847656 7.833696842193604 21.66472053527832 8.260196685791016 21.66472053527832 L 8.301530838012695 21.66472053527832 C 8.349220275878906 21.52192687988281 8.406979560852051 21.38190078735352 8.473899841308594 21.2468433380127 L 8.442056655883789 21.21491050720215 C 8.296767234802246 21.07054138183594 8.216396331787109 20.87685203552246 8.216086387634277 20.66984176635742 C 8.215776443481445 20.46244049072266 8.296196937561035 20.26767158508301 8.442536354064941 20.12140083312988 L 8.82707691192627 19.73705101013184 C 8.973076820373535 19.59114074707031 9.167447090148926 19.51078033447266 9.374366760253906 19.51078033447266 C 9.582467079162598 19.5110912322998 9.776506423950195 19.59174156188965 9.921916961669922 19.73787117004395 L 9.947824478149414 19.76369857788086 C 10.08457374572754 19.69487380981445 10.22672367095947 19.63535499572754 10.37201690673828 19.58609199523926 L 10.37201690673828 19.54415130615234 C 10.37201690673828 19.11729049682617 10.71898651123047 18.77002143859863 11.14546680450439 18.77002143859863 L 11.68974685668945 18.77002143859863 C 12.11670684814453 18.77002143859863 12.46405696868896 19.11729049682617 12.46405696868896 19.54415130615234 L 12.46405696868896 19.57816314697266 C 12.61335563659668 19.62755584716797 12.75978755950928 19.68802833557129 12.90097141265869 19.75859451293945 L 12.93072700500488 19.72897148132324 C 13.07504653930664 19.58386039733887 13.26871681213379 19.5035514831543 13.47570705413818 19.50321197509766 C 13.47755241394043 19.50321197509766 13.47939777374268 19.50321960449219 13.48124694824219 19.50323295593262 L 13.48124694824219 16.67262077331543 L 0.7015967965126038 16.67262077331543 L 0.7015967965126038 22.02924156188965 C 0.7015967965126038 22.53085136413574 1.026606798171997 22.95462036132813 1.411316752433777 22.95462036132813 L 3.175946712493896 22.95462036132813 C 3.39691686630249 22.95462036132813 3.576696872711182 23.13440132141113 3.576696872711182 23.35538101196289 C 3.576696872711182 23.57635116577148 3.39691686630249 23.75613212585449 3.175946712493896 23.75613212585449 L 1.411316752433777 23.75613212585449 C 0.5780068039894104 23.75613212585449 -0.09994322061538696 22.98144149780273 -0.09994322061538696 22.02921104431152 L -0.09994322061538696 13.62292098999023 C -0.09994322061538696 12.67069149017334 0.5780068039894104 11.89600086212158 1.411316752433777 11.89600086212158 L 12.77155685424805 11.89600086212158 C 13.60487651824951 11.89600086212158 14.28282642364502 12.67069149017334 14.28282642364502 13.62292098999023 L 14.28282642364502 19.98791694641113 L 14.40877723693848 20.11380195617676 C 14.55512714385986 20.26010131835938 14.63554668426514 20.45488166809082 14.6352367401123 20.66227149963379 C 14.63492679595947 20.86923217773438 14.5542163848877 21.06327056884766 14.40796661376953 21.20863151550293 L 14.3799991607666 21.2366943359375 C 14.44900608062744 21.37467384338379 14.50845813751221 21.51813888549805 14.55740165710449 21.66478157043457 L 14.59616661071777 21.66478157043457 C 14.80268669128418 21.66478157043457 14.99702644348145 21.74527168273926 15.14340686798096 21.89142036437988 C 15.28982639312744 22.03762054443359 15.37044715881348 22.23173141479492 15.37041664123535 22.43801116943359 L 15.37041664123535 22.98280143737793 C 15.37041664123535 23.40917205810547 15.02306652069092 23.75604057312012 14.59610652923584 23.75604057312012 L 14.5552282333374 23.75604057312012 C 14.50676536560059 23.90048789978027 14.44802761077881 24.04202651977539 14.37996196746826 24.17836761474609 L 14.40866661071777 24.20706176757813 C 14.55501651763916 24.35333061218262 14.63545703887939 24.54811096191406 14.63514709472656 24.7555103302002 C 14.63483715057373 24.96248054504395 14.55412673950195 25.15652084350586 14.40787696838379 25.30188179016113 L 14.02444648742676 25.68596076965332 C 13.87820720672607 25.83210182189941 13.68374633789063 25.91254043579102 13.47682666778564 25.91254043579102 C 13.26865673065186 25.91221046447754 13.07463645935059 25.83154106140137 12.92929649353027 25.68541145324707 L 12.900954246521 25.65717506408691 C 12.76318264007568 25.7259578704834 12.62014389038086 25.78518104553223 12.47413635253906 25.83389854431152 L 12.47413635253906 25.87667083740234 C 12.47413635253906 26.30353164672852 12.12716674804688 26.65080070495605 11.70068645477295 26.65080070495605 Z M 11.18369674682617 25.84935188293457 L 11.67265701293945 25.84935188293457 L 11.67265701293945 25.53046035766602 C 11.67265701293945 25.34221076965332 11.80086708068848 25.18151092529297 11.98443698883057 25.13966178894043 C 12.25874710083008 25.07724189758301 12.51828670501709 24.96982192993164 12.75589656829834 24.82035064697266 C 12.81991672515869 24.78011131286621 12.89365673065186 24.75884056091309 12.96917724609375 24.75884056091309 C 13.07597637176514 24.75884056091309 13.17644691467285 24.80032157897949 13.25209712982178 24.87565040588379 L 13.47715950012207 25.09978294372559 L 13.82218265533447 24.754150390625 L 13.59871673583984 24.53083038330078 C 13.46553707122803 24.39776039123535 13.44249725341797 24.1934814453125 13.54269695281982 24.03406143188477 C 13.69182682037354 23.79679107666016 13.79909706115723 23.53831100463867 13.86154651641846 23.26581192016602 C 13.90351676940918 23.08256149291992 14.06416702270508 22.95456123352051 14.25219631195068 22.95456123352051 L 14.56893730163574 22.95456123352051 L 14.56894588470459 22.46640205383301 L 14.25386714935303 22.46640205383301 C 14.06563663482666 22.46640205383301 13.90494632720947 22.33823204040527 13.86309719085693 22.15472221374512 C 13.80034637451172 21.87945175170898 13.69265651702881 21.61960220336914 13.54301643371582 21.38238143920898 C 13.44257640838623 21.22319030761719 13.465256690979 21.01889038085938 13.59818649291992 20.88558197021484 L 13.82217502593994 20.66092109680176 L 13.477126121521 20.31608963012695 L 13.25207710266113 20.54023170471191 C 13.17642688751221 20.61556053161621 13.07595634460449 20.65704154968262 12.96914672851563 20.65704154968262 C 12.89379692077637 20.65704154968262 12.82019710540771 20.63586044311523 12.75629711151123 20.59581184387207 C 12.51367664337158 20.44360160827637 12.25121688842773 20.33537101745605 11.97618675231934 20.27411079406738 C 11.79150676727295 20.23299217224121 11.66251659393311 20.0721321105957 11.66251659393311 19.88293075561523 L 11.66251659393311 19.57165145874023 L 11.17352676391602 19.57165145874023 L 11.17352676391602 19.88800048828125 C 11.17352676391602 20.07514190673828 11.04629707336426 20.23561096191406 10.86411666870117 20.27823066711426 C 10.58999633789063 20.34239196777344 10.33119678497314 20.45088195800781 10.09488677978516 20.60070037841797 C 10.0306568145752 20.64145088195801 9.956497192382813 20.66300201416016 9.880456924438477 20.66300201416016 C 9.773646354675293 20.66300201416016 9.67315673828125 20.62150192260742 9.59749698638916 20.54615211486816 L 9.374114990234375 20.32365417480469 L 9.029095649719238 20.66851234436035 L 9.254746437072754 20.89483070373535 C 9.387026786804199 21.02745056152344 9.410146713256836 21.23108100891113 9.310976982116699 21.38999176025391 C 9.163557052612305 21.62621116638184 9.057537078857422 21.88345146179199 8.995837211608887 22.15456199645996 C 8.954036712646484 22.33816146850586 8.793326377868652 22.46638107299805 8.605027198791504 22.46638107299805 L 8.288287162780762 22.46638107299805 L 8.288287162780762 22.95462036132813 L 8.605896949768066 22.95462036132813 C 8.793927192687988 22.95462036132813 8.954586982727051 23.08263206481934 8.996576309204102 23.26591110229492 C 9.059086799621582 23.53878211975098 9.16646671295166 23.79700088500977 9.315756797790527 24.03338050842285 C 9.41668701171875 24.19321060180664 9.393647193908691 24.39797210693359 9.259716987609863 24.53134155273438 L 9.035947799682617 24.75421333312988 L 9.381707191467285 25.09980010986328 L 9.605446815490723 24.87617111206055 C 9.681056976318359 24.80052185058594 9.781716346740723 24.75883102416992 9.888846397399902 24.75883102416992 C 9.964056968688965 24.75883102416992 10.03755664825439 24.77995109558105 10.10138702392578 24.81991195678711 C 10.3416166305542 24.9702320098877 10.60066699981689 25.07749176025391 10.87133693695068 25.13869094848633 C 11.05524635314941 25.18027114868164 11.18369674682617 25.34102058410645 11.18369674682617 25.52959060668945 L 11.18369674682617 25.84935188293457 Z M 0.7015967965126038 15.87108135223389 L 13.481276512146 15.8711109161377 L 13.481276512146 13.62292098999023 C 13.481276512146 13.12131118774414 13.1562671661377 12.69754123687744 12.77155685424805 12.69754123687744 L 1.411316752433777 12.69754123687744 C 1.026606798171997 12.69754123687744 0.7015967965126038 13.12131118774414 0.7015967965126038 13.62292098999023 L 0.7015967965126038 15.87108135223389 Z" stroke="none"/>
      <path d="M 11.70068645477295 26.55080032348633 C 12.07203674316406 26.55080032348633 12.37413692474365 26.24841117858887 12.37413692474365 25.87667083740234 L 12.37413692474365 25.7609806060791 C 12.56295680999756 25.70273208618164 12.745436668396 25.62715148925781 12.919997215271 25.53499031066895 L 13.00019645690918 25.61489105224609 C 13.12668704986572 25.7420711517334 13.29558658599854 25.81225204467773 13.47578716278076 25.81254196166992 L 13.47682666778564 25.81254196166992 C 13.65706634521484 25.81254196166992 13.82629680633545 25.74260139465332 13.9536771774292 25.61531066894531 L 14.33737659454346 25.23096084594727 C 14.46463680267334 25.10447120666504 14.53487682342529 24.93557167053223 14.53514671325684 24.75536155700684 C 14.53541660308838 24.57474136352539 14.46541690826416 24.40516090393066 14.33796691894531 24.27778053283691 L 14.25770664215088 24.19755172729492 C 14.34924697875977 24.02417182922363 14.42437648773193 23.84311103820801 14.48244667053223 23.65604209899902 L 14.59610652923584 23.65604209899902 C 14.96793651580811 23.65604209899902 15.27041721343994 23.35403060913086 15.27041721343994 22.98280143737793 L 15.27041721343994 22.43799209594727 C 15.27047634124756 22.06679153442383 14.96799659729004 21.7647819519043 14.59616661071777 21.7647819519043 L 14.4844970703125 21.7647819519043 C 14.42601680755615 21.57533073425293 14.35022640228271 21.39244079589844 14.25776672363281 21.21767044067383 L 14.33746719360352 21.13771057128906 C 14.46472644805908 21.01122093200684 14.53496646881104 20.84232139587402 14.53523635864258 20.6621208190918 C 14.53550720214844 20.48149108886719 14.4655065536499 20.31191062927246 14.33808708190918 20.18453216552734 L 14.18282699584961 20.02935218811035 L 14.18282699584961 13.62292098999023 C 14.18282699584961 12.72582149505615 13.54975700378418 11.99600124359131 12.77155685424805 11.99600124359131 L 1.411316752433777 11.99600124359131 C 0.6331167817115784 11.99600124359131 5.678085290128365e-05 12.72582149505615 5.678085290128365e-05 13.62292098999023 L 5.678085290128365e-05 22.02921104431152 C 5.678085290128365e-05 22.92631149291992 0.6331167817115784 23.65613174438477 1.411316752433777 23.65613174438477 L 3.175946712493896 23.65613174438477 C 3.342036724090576 23.65613174438477 3.476696729660034 23.52147102355957 3.476696729660034 23.35538101196289 C 3.476696729660034 23.18928146362305 3.342036724090576 23.05462074279785 3.175946712493896 23.05462074279785 L 1.411316752433777 23.05462074279785 C 0.972406804561615 23.05462074279785 0.6015967726707458 22.58503150939941 0.6015967726707458 22.02924156188965 L 0.6015967726707458 16.5726203918457 L 13.5812463760376 16.5726203918457 L 13.5812463760376 19.61194038391113 C 13.54698657989502 19.60667037963867 13.51226711273193 19.60321044921875 13.47692680358887 19.60321044921875 C 13.47656631469727 19.60321044921875 13.47620677947998 19.60321044921875 13.4758768081665 19.60321044921875 C 13.29567718505859 19.60351181030273 13.12677669525146 19.67365074157715 13.00127696990967 19.79984092712402 L 12.91996669769287 19.88079071044922 C 12.74152660369873 19.7865104675293 12.55568695068359 19.70983123779297 12.36405658721924 19.65128135681152 L 12.36405658721924 19.54415130615234 C 12.36405658721924 19.17241096496582 12.06157684326172 18.87002182006836 11.68974685668945 18.87002182006836 L 11.14546680450439 18.87002182006836 C 10.77411651611328 18.87002182006836 10.47201633453369 19.17241096496582 10.47201633453369 19.54415130615234 L 10.47201633453369 19.65862083435059 C 10.28400707244873 19.71770095825195 10.10245704650879 19.79373168945313 9.928936958312988 19.88607215881348 L 9.85102653503418 19.80840110778809 C 9.724516868591309 19.68126106262207 9.555586814880371 19.61105155944824 9.37537670135498 19.61078071594238 C 9.375057220458984 19.61078071594238 9.374727249145508 19.61078071594238 9.374366760253906 19.61078071594238 C 9.194136619567871 19.61078071594238 9.024907112121582 19.68072128295898 8.897767066955566 19.80778121948242 L 8.513226509094238 20.19213104248047 C 8.38581657409668 20.31948089599609 8.315816879272461 20.48910140991211 8.316086769104004 20.66969108581543 C 8.316356658935547 20.84989166259766 8.386556625366211 21.01879119873047 8.512866973876953 21.14430046081543 L 8.59593677520752 21.22760200500488 C 8.505766868591309 21.39969062805176 8.431716918945313 21.57920074462891 8.37442684173584 21.76472091674805 L 8.260196685791016 21.76472091674805 C 7.888806819915771 21.76472091674805 7.586716651916504 22.06673049926758 7.586716651916504 22.43799209594727 L 7.586716651916504 22.98280143737793 C 7.586716651916504 23.00702095031738 7.588056564331055 23.03094100952148 7.590556621551514 23.05450057983398 L 5.840576648712158 23.05450057983398 C 5.674476623535156 23.05450057983398 5.539816856384277 23.18916130065918 5.539816856384277 23.35526084899902 C 5.539816856384277 23.5213508605957 5.674476623535156 23.6560115814209 5.840576648712158 23.6560115814209 L 8.260167121887207 23.6560115814209 L 8.375556945800781 23.6560115814209 C 8.433716773986816 23.84328079223633 8.508906364440918 24.02423095703125 8.600616455078125 24.19746208190918 L 8.519336700439453 24.27837181091309 C 8.257686614990234 24.54143142700195 8.257926940917969 24.96849060058594 8.519967079162598 25.23033142089844 L 8.904706954956055 25.61492156982422 C 9.031227111816406 25.74206161499023 9.200157165527344 25.81228065490723 9.380356788635254 25.81254196166992 L 9.381346702575684 25.81254196166992 C 9.561606407165527 25.81254196166992 9.730836868286133 25.74260139465332 9.857976913452148 25.61552047729492 L 9.938536643981934 25.53502082824707 C 10.11330699920654 25.62715148925781 10.29503631591797 25.70243072509766 10.48209667205811 25.76026153564453 L 10.48209667205811 25.87667083740234 C 10.48209667205811 26.24841117858887 10.7841968536377 26.55080032348633 11.15557670593262 26.55080032348633 L 11.70068645477295 26.55080032348633 M 9.888846397399902 24.85883140563965 C 9.8111572265625 24.85883140563965 9.734147071838379 24.88886070251465 9.67613697052002 24.94690132141113 L 9.432796478271484 25.19012069702148 C 9.414566993713379 25.20832061767578 9.392827033996582 25.21106147766113 9.381377220153809 25.21106147766113 C 9.381346702575684 25.21106147766113 9.381317138671875 25.21106147766113 9.38128662109375 25.21106147766113 C 9.367656707763672 25.21106147766113 9.347916603088379 25.20751190185547 9.330646514892578 25.19015121459961 L 8.945277214050293 24.80497169494629 C 8.918276786804199 24.77800178527832 8.918577194213867 24.73022079467773 8.944916725158691 24.7037410736084 L 9.189156532287598 24.46048164367676 C 9.288947105407715 24.36111068725586 9.306396484375 24.20584106445313 9.231206893920898 24.0867805480957 C 9.075846672058105 23.84078216552734 8.964126586914063 23.57211112976074 8.899106979370117 23.28824043273926 C 8.867786407470703 23.15155220031738 8.746156692504883 23.05462074279785 8.605896949768066 23.05462074279785 L 8.26021671295166 23.05462074279785 C 8.221237182617188 23.05462074279785 8.188286781311035 23.02178192138672 8.188286781311035 22.9829216003418 L 8.188286781311035 22.4381103515625 C 8.188286781311035 22.39925193786621 8.221237182617188 22.36638069152832 8.26021671295166 22.36638069152832 L 8.605027198791504 22.36638069152832 C 8.745416641235352 22.36638069152832 8.867166519165039 22.26924133300781 8.898326873779297 22.13237190246582 C 8.962516784667969 21.85031127929688 9.072806358337402 21.58275032043457 9.226137161254883 21.33705139160156 C 9.300156593322754 21.21844100952148 9.282687187194824 21.06445121765137 9.183937072753906 20.96544075012207 L 8.93787670135498 20.71866035461426 C 8.921176910400391 20.70208168029785 8.917656898498535 20.68243217468262 8.91762638092041 20.66889190673828 C 8.91762638092041 20.65755081176758 8.920307159423828 20.63584136962891 8.938507080078125 20.61767196655273 L 9.323006629943848 20.23335075378418 C 9.341226577758789 20.21516036987305 9.362977027893066 20.21241188049316 9.37442684173584 20.21241188049316 L 9.374516487121582 20.21241188049316 C 9.38814640045166 20.21244049072266 9.407886505126953 20.21596145629883 9.425517082214355 20.23371124267578 L 9.668056488037109 20.47529220581055 C 9.726104736328125 20.53310012817383 9.802960395812988 20.5630054473877 9.880453109741211 20.5630054473877 C 9.935976982116699 20.5630054473877 9.991820335388184 20.54766464233398 10.04134654998779 20.5162410736084 C 10.28710651397705 20.36043167114258 10.55627632141113 20.24758148193359 10.84133720397949 20.18086051940918 C 10.97734642028809 20.1490421295166 11.07352638244629 20.02770042419434 11.07352638244629 19.88800048828125 L 11.07352638244629 19.54424095153809 C 11.07352638244629 19.50490188598633 11.1064567565918 19.47165107727051 11.14543724060059 19.47165107727051 L 11.68971633911133 19.47165107727051 C 11.72917652130127 19.47165107727051 11.76251697540283 19.50490188598633 11.76251697540283 19.54424095153809 L 11.76251697540283 19.88293075561523 C 11.76251697540283 20.02386093139648 11.86034679412842 20.14587211608887 11.99792671203613 20.17650032043457 C 12.28409671783447 20.24024200439453 12.55711650848389 20.3528003692627 12.80940723419189 20.51108169555664 C 12.85865020751953 20.54195022583008 12.91407680511475 20.55703735351563 12.96914291381836 20.55703735351563 C 13.04665565490723 20.55703735351563 13.12347412109375 20.52716827392578 13.1815071105957 20.46938133239746 L 13.42675685882568 20.22512054443359 C 13.44339656829834 20.20838165283203 13.46311664581299 20.20487213134766 13.47674655914307 20.20483207702637 L 13.47683715820313 20.20483207702637 C 13.4882869720459 20.20483207702637 13.5100269317627 20.20758056640625 13.52821636199951 20.22577095031738 L 13.91275691986084 20.61007118225098 C 13.93094635009766 20.62826156616211 13.93363666534424 20.64997100830078 13.93363666534424 20.66131210327148 C 13.93360710144043 20.67485046386719 13.93008708953857 20.69450187683105 13.91239643096924 20.71207046508789 L 13.66899681091309 20.95619201660156 C 13.56988716125488 21.05559158325195 13.55270671844482 21.21033096313477 13.62759685516357 21.32903099060059 C 13.78331661224365 21.57589149475098 13.89533710479736 21.84623146057129 13.96059703826904 22.13249206542969 C 13.99179649353027 22.26932144165039 14.11347675323486 22.36640167236328 14.25386714935303 22.36640167236328 L 14.59613704681396 22.36640167236328 C 14.63490676879883 22.36640167236328 14.66894721984863 22.39996147155762 14.66894721984863 22.43813133239746 L 14.66893672943115 22.98286056518555 C 14.66893672943115 23.02107048034668 14.63493633270264 23.05456161499023 14.59613704681396 23.05456161499023 L 14.25219631195068 23.05456161499023 C 14.11195659637451 23.05456161499023 13.99032688140869 23.15146064758301 13.95901679992676 23.28815078735352 C 13.89405632019043 23.57164192199707 13.7824764251709 23.84048080444336 13.62735652923584 24.08728218078613 C 13.55264663696289 24.20614051818848 13.57009696960449 24.36087036132813 13.66940689086914 24.46010208129883 L 13.91278648376465 24.70332145690918 C 13.93097686767578 24.72151184082031 13.93365669250488 24.74323081970215 13.93365669250488 24.75456047058105 C 13.93363666534424 24.76810073852539 13.93011665344238 24.78776168823242 13.91254711151123 24.80517196655273 L 13.52827644348145 25.19012069702148 C 13.5100564956665 25.20832061767578 13.48831653594971 25.21106147766113 13.47686672210693 25.21106147766113 C 13.47682666778564 25.21106147766113 13.47679710388184 25.21106147766113 13.47679710388184 25.21106147766113 C 13.46313667297363 25.21106147766113 13.44342708587646 25.20751190185547 13.42579650878906 25.18976211547852 L 13.18153667449951 24.94651031494141 C 13.12350559234619 24.88872528076172 13.0466775894165 24.85884094238281 12.96917533874512 24.85884094238281 C 12.91399192810059 24.85884094238281 12.85846996307373 24.87398719787598 12.80913639068604 24.90500068664551 C 12.56197643280029 25.06047058105469 12.29200649261475 25.17223167419434 12.006667137146 25.23716163635254 C 11.86979675292969 25.26836204528809 11.77265644073486 25.39004135131836 11.77265644073486 25.53046035766602 L 11.77265644073486 25.87676048278809 C 11.77265644073486 25.9154109954834 11.73904705047607 25.94935035705566 11.70074653625488 25.94935035705566 L 11.15563678741455 25.94935035705566 C 11.11730670928955 25.94935035705566 11.08369636535645 25.91544151306152 11.08369636535645 25.87676048278809 L 11.08369636535645 25.52959060668945 C 11.08369636535645 25.38906097412109 10.98634719848633 25.26722145080566 10.84927654266357 25.23623085021973 C 10.56757640838623 25.17253112792969 10.29807662963867 25.06095123291016 10.04832649230957 24.90467071533203 C 9.999106407165527 24.87386131286621 9.943817138671875 24.85883140563965 9.888846397399902 24.85883140563965 M 1.411316752433777 12.59754085540771 L 12.77155685424805 12.59754085540771 C 13.2104663848877 12.59754085540771 13.58127689361572 13.06713104248047 13.58127689361572 13.62292098999023 L 13.58127689361572 15.97111129760742 L 0.6015967726707458 15.97111129760742 L 0.6015967726707458 15.97108173370361 L 0.6015967726707458 13.62292098999023 C 0.6015967726707458 13.06713104248047 0.972406804561615 12.59754085540771 1.411316752433777 12.59754085540771 M 11.70068645477295 26.75080108642578 L 11.15557670593262 26.75080108642578 C 10.68322658538818 26.75080108642578 10.29724502563477 26.37364768981934 10.28253269195557 25.90445518493652 C 10.17915534973145 25.86739540100098 10.07723140716553 25.82514762878418 9.977566719055176 25.77803611755371 C 9.815398216247559 25.92949676513672 9.604857444763184 26.01254081726074 9.381346702575684 26.01254081726074 C 9.146396636962891 26.0122013092041 8.927236557006836 25.92109107971191 8.762936592102051 25.75600051879883 L 8.37857723236084 25.37178039550781 C 8.045633316040039 25.03909301757813 8.038431167602539 24.50078201293945 8.357336044311523 24.15832138061523 C 8.310633659362793 24.05974960327148 8.268646240234375 23.9587287902832 8.231689453125 23.85601043701172 L 5.840576648712158 23.85601043701172 C 5.564456939697266 23.85601043701172 5.339816570281982 23.63137054443359 5.339816570281982 23.35526084899902 C 5.339816570281982 23.07914161682129 5.564456939697266 22.85450172424316 5.840576648712158 22.85450172424316 L 7.386716842651367 22.85450172424316 L 7.386716842651367 22.43799209594727 C 7.386716842651367 21.96652221679688 7.762349128723145 21.58111572265625 8.230135917663574 21.56523132324219 C 8.26634693145752 21.46403694152832 8.307455062866211 21.3643856048584 8.353156089782715 21.26701545715332 C 8.200620651245117 21.10620880126953 8.116423606872559 20.8950252532959 8.116086959838867 20.66999053955078 C 8.115736961364746 20.43581199645996 8.20656681060791 20.21587181091309 8.37183666229248 20.05068206787109 L 8.756377220153809 19.66632080078125 C 8.921277046203613 19.50153160095215 9.1407470703125 19.41078186035156 9.374366760253906 19.41078186035156 C 9.597433090209961 19.41111373901367 9.806241035461426 19.49323463439941 9.967365264892578 19.64276885986328 C 10.06680774688721 19.59534072875977 10.168776512146 19.55265426635742 10.27249526977539 19.51503753662109 C 10.28788661956787 19.04645538330078 10.67357635498047 18.67002105712891 11.14546680450439 18.67002105712891 L 11.68974685668945 18.67002105712891 C 12.15922355651855 18.67002105712891 12.54345417022705 19.0418643951416 12.56325340270996 19.5064582824707 C 12.6711483001709 19.54472541809082 12.77739810943604 19.5886058807373 12.8811206817627 19.63773345947266 C 13.01878929138184 19.50825500488281 13.19308853149414 19.42856025695801 13.38124656677246 19.40832710266113 L 13.38124656677246 16.77262115478516 L 0.8015967607498169 16.77262115478516 L 0.8015967607498169 22.02924156188965 C 0.8015967607498169 22.46893119812012 1.086516737937927 22.85462188720703 1.411316752433777 22.85462188720703 L 3.175946712493896 22.85462188720703 C 3.452056884765625 22.85462188720703 3.67669677734375 23.07926177978516 3.67669677734375 23.35538101196289 C 3.67669677734375 23.63149070739746 3.452056884765625 23.85613059997559 3.175946712493896 23.85613059997559 L 1.411316752433777 23.85613059997559 C 0.5228667855262756 23.85613059997559 -0.1999432146549225 23.03658103942871 -0.1999432146549225 22.02921104431152 L -0.1999432146549225 13.62292098999023 C -0.1999432146549225 12.61555099487305 0.5228667855262756 11.79600143432617 1.411316752433777 11.79600143432617 L 12.77155685424805 11.79600143432617 C 13.6600170135498 11.79600143432617 14.38282680511475 12.61555099487305 14.38282680511475 13.62292098999023 L 14.38282680511475 19.94648170471191 L 14.47946643829346 20.04307174682617 C 14.64475631713867 20.20831108093262 14.73558712005615 20.42826080322266 14.73523712158203 20.66242218017578 C 14.73490333557129 20.88536643981934 14.65191078186035 21.09507179260254 14.50084781646729 21.2564868927002 C 14.54851913452148 21.35713005065918 14.59129905700684 21.46036720275879 14.62884521484375 21.56537818908691 C 14.84980010986328 21.57346153259277 15.05655288696289 21.66338539123535 15.21406650543213 21.82065200805664 C 15.37941646575928 21.98575210571289 15.47045707702637 22.20500183105469 15.47041702270508 22.43802070617676 L 15.47041702270508 22.98280143737793 C 15.47041702270508 23.45414352416992 15.09460258483887 23.83945465087891 14.62653255462646 23.85551834106445 C 14.58956146240234 23.95841217041016 14.54754161834717 24.05965995788574 14.50079250335693 24.15850639343262 C 14.65248489379883 24.32095909118652 14.73548126220703 24.53181457519531 14.73514652252197 24.75566101074219 C 14.73479652404785 24.98940086364746 14.6436071395874 25.20857048034668 14.47836685180664 25.37281036376953 L 14.09521675109863 25.75661087036133 C 13.930006980896 25.92171096801758 13.71044635772705 26.01254081726074 13.47682666778564 26.01254081726074 C 13.2524356842041 26.01217842102051 13.04255962371826 25.92913055419922 12.88112449645996 25.77799224853516 C 12.78084945678711 25.82541465759277 12.67809009552002 25.86796379089355 12.57367420196533 25.90529632568359 C 12.55850887298584 26.37408447265625 12.1727237701416 26.75080108642578 11.70068645477295 26.75080108642578 Z M 11.2836971282959 25.74935150146484 L 11.57265663146973 25.74935150146484 L 11.57265663146973 25.53046035766602 C 11.57265663146973 25.29524040222168 11.73284721374512 25.09445190429688 11.9622163772583 25.04216194152832 C 12.22552680969238 24.98225212097168 12.47461700439453 24.879150390625 12.70264720916748 24.7357120513916 C 12.7826566696167 24.68541145324707 12.87480640411377 24.65884208679199 12.96917724609375 24.65884208679199 C 13.10261631011963 24.65884208679199 13.22815704345703 24.71067047119141 13.32266712188721 24.80480194091797 L 13.47694969177246 24.95844650268555 L 13.6807975769043 24.75423240661621 L 13.52803707122803 24.60157203674316 C 13.36161708831787 24.4352912902832 13.33282661437988 24.18004035949707 13.45802688598633 23.9808521270752 C 13.60117721557617 23.75310134887695 13.70413684844971 23.5050106048584 13.76406669616699 23.24348068237305 C 13.8165168762207 23.01450157165527 14.01724720001221 22.85456085205078 14.25219631195068 22.85456085205078 L 14.46893882751465 22.85456085205078 L 14.46894454956055 22.5664005279541 L 14.25386714935303 22.5664005279541 C 14.01866722106934 22.5664005279541 13.81788635253906 22.40625190734863 13.76559638977051 22.17695045471191 C 13.70536708831787 21.9127311706543 13.60202693939209 21.66335105895996 13.45843696594238 21.43573188781738 C 13.33293724060059 21.2368221282959 13.36128711700439 20.98155212402344 13.52736663818359 20.81498146057129 L 13.68084049224854 20.66105461120605 L 13.4770040512085 20.45734977722168 L 13.32264709472656 20.61109161376953 C 13.22812652587891 20.7052116394043 13.10258674621582 20.75704193115234 12.96914672851563 20.75704193115234 C 12.87497711181641 20.75704193115234 12.78300666809082 20.73058128356934 12.70317649841309 20.6805305480957 C 12.47021675109863 20.53438186645508 12.21832656860352 20.43049049377441 11.95444679260254 20.3717212677002 C 11.72368717193604 20.32034111022949 11.5625171661377 20.11934089660645 11.5625171661377 19.88293075561523 L 11.5625171661377 19.67165184020996 L 11.27352714538574 19.67165184020996 L 11.27352714538574 19.88800048828125 C 11.27352714538574 20.1218318939209 11.11453723907471 20.32234191894531 10.88689708709717 20.37560081481934 C 10.62371635437012 20.43720054626465 10.37525653839111 20.54135131835938 10.14843654632568 20.68515205383301 C 10.06816673278809 20.73607063293457 9.975486755371094 20.76300048828125 9.880456924438477 20.76300048828125 C 9.747016906738281 20.76300048828125 9.621466636657715 20.71115112304688 9.52692699432373 20.61700057983398 L 9.374238967895508 20.46491813659668 L 9.170424461364746 20.66863632202148 L 9.325567245483398 20.82423210144043 C 9.490837097167969 20.98993110656738 9.519726753234863 21.24436187744141 9.395806312561035 21.44294166564941 C 9.254316329956055 21.6696605682373 9.152556419372559 21.91655158996582 9.093337059020996 22.1767520904541 C 9.041107177734375 22.40617179870605 8.840307235717773 22.56638145446777 8.605027198791504 22.56638145446777 L 8.388286590576172 22.56638145446777 L 8.388286590576172 22.85462188720703 L 8.605896949768066 22.85462188720703 C 8.840847015380859 22.85462188720703 9.041576385498047 23.01456069946289 9.094057083129883 23.24357032775879 C 9.154026985168457 23.50542068481445 9.25706672668457 23.75318145751953 9.400306701660156 23.9799919128418 C 9.526426315307617 24.17969131469727 9.497626304626465 24.43555068969727 9.330276489257813 24.60220146179199 L 9.177532196044922 24.75433921813965 L 9.381709098815918 24.95841026306152 L 9.534747123718262 24.80544090270996 C 9.629217147827148 24.7109203338623 9.754997253417969 24.6588306427002 9.888846397399902 24.6588306427002 C 9.982847213745117 24.6588306427002 10.07468700408936 24.68522071838379 10.15444660186768 24.73514175415039 C 10.38509654998779 24.87948036193848 10.63372707366943 24.98244094848633 10.89338684082031 25.04116058349609 C 11.12319660186768 25.09311103820801 11.2836971282959 25.29396057128906 11.2836971282959 25.52959060668945 L 11.2836971282959 25.74935150146484 Z M 0.8015967607498169 15.77108192443848 L 13.38127708435059 15.77111053466797 L 13.38127708435059 13.62292098999023 C 13.38127708435059 13.18323135375977 13.09635639190674 12.79754161834717 12.77155685424805 12.79754161834717 L 1.411316752433777 12.79754161834717 C 1.086516737937927 12.79754161834717 0.8015967607498169 13.18323135375977 0.8015967607498169 13.62292098999023 L 0.8015967607498169 15.77108192443848 Z" stroke="none" fill="#000"/>
    </g>
    <g id="Path_948" data-name="Path 948" transform="translate(-311.968 -288.778)">
      <path d="M 323.3970947265625 313.4256896972656 C 322.3284301757813 313.4256896972656 321.4590148925781 312.5570068359375 321.4590148925781 311.4892578125 C 321.4590148925781 310.4210510253906 322.3284301757813 309.552001953125 323.3970947265625 309.552001953125 C 324.4653015136719 309.552001953125 325.3343200683594 310.4210510253906 325.3343200683594 311.4892578125 C 325.3343200683594 312.5570068359375 324.4653015136719 313.4256896972656 323.3970947265625 313.4256896972656 Z M 323.3970947265625 310.3535461425781 C 322.7704162597656 310.3535461425781 322.2605895996094 310.8630065917969 322.2605895996094 311.4892578125 C 322.2605895996094 312.1150512695313 322.7704162597656 312.6241455078125 323.3970947265625 312.6241455078125 C 324.0233154296875 312.6241455078125 324.5327758789063 312.1150512695313 324.5327758789063 311.4892578125 C 324.5327758789063 310.8630065917969 324.0233154296875 310.3535461425781 323.3970947265625 310.3535461425781 Z" stroke="none"/>
      <path d="M 323.3970947265625 309.6520080566406 C 322.3835754394531 309.6520080566406 321.5590209960938 310.4761962890625 321.5590209960938 311.4892578125 C 321.5590209960938 312.5018615722656 322.3835754394531 313.32568359375 323.3970947265625 313.32568359375 C 324.41015625 313.32568359375 325.2343139648438 312.5018920898438 325.2343139648438 311.4892578125 C 325.2343139648438 310.4762268066406 324.41015625 309.6520080566406 323.3970947265625 309.6520080566406 M 323.3970947265625 312.7241516113281 C 322.7153015136719 312.7241516113281 322.1605834960938 312.170166015625 322.1605834960938 311.4892578125 C 322.1605834960938 310.8078918457031 322.7153015136719 310.2535400390625 323.3970947265625 310.2535400390625 C 324.0784606933594 310.2535400390625 324.6327819824219 310.8078918457031 324.6327819824219 311.4892578125 C 324.6327819824219 312.170166015625 324.0784301757813 312.7241516113281 323.3970947265625 312.7241516113281 M 323.3970947265625 309.4519958496094 C 324.5204162597656 309.4519958496094 325.434326171875 310.3659057617188 325.434326171875 311.4892578125 C 325.434326171875 312.6121520996094 324.5204162597656 313.5256958007813 323.3970947265625 313.5256958007813 C 322.2732849121094 313.5256958007813 321.3590087890625 312.6121520996094 321.3590087890625 311.4892578125 C 321.3590087890625 310.3659057617188 322.2732849121094 309.4519958496094 323.3970947265625 309.4519958496094 Z M 323.3970947265625 312.5241394042969 C 323.9681701660156 312.5241394042969 324.4327697753906 312.0599060058594 324.4327697753906 311.4892578125 C 324.4327697753906 310.9181518554688 323.9681701660156 310.4535522460938 323.3970947265625 310.4535522460938 C 322.8255615234375 310.4535522460938 322.360595703125 310.9181518554688 322.360595703125 311.4892578125 C 322.360595703125 312.0599060058594 322.8255615234375 312.5241394042969 323.3970947265625 312.5241394042969 Z" stroke="none" fill="#000"/>
    </g>
    <g id="Path_949" data-name="Path 949" transform="translate(-136.961 -359.723)">
      <path d="M 141.4786529541016 383.4795227050781 L 141.4727478027344 383.4795227050781 C 141.2517852783203 383.4795227050781 141.0719909667969 383.2997436523438 141.0719909667969 383.0787658691406 C 141.0719909667969 382.8577880859375 141.2517852783203 382.6780090332031 141.4727478027344 382.6780090332031 L 141.4786529541016 382.6780090332031 C 141.6996307373047 382.6780090332031 141.8794250488281 382.8577880859375 141.8794250488281 383.0787658691406 C 141.8794250488281 383.2997436523438 141.6996307373047 383.4795227050781 141.4786529541016 383.4795227050781 Z" stroke="none"/>
      <path d="M 141.4727478027344 382.7780151367188 C 141.3066558837891 382.7780151367188 141.1719970703125 382.9126586914063 141.1719970703125 383.0787658691406 C 141.1719970703125 383.244873046875 141.3066558837891 383.3795166015625 141.4727478027344 383.3795166015625 L 141.4786529541016 383.3795166015625 C 141.6447448730469 383.3795166015625 141.7794189453125 383.244873046875 141.7794189453125 383.0787658691406 C 141.7794189453125 382.9126586914063 141.6447448730469 382.7780151367188 141.4786529541016 382.7780151367188 L 141.4727478027344 382.7780151367188 M 141.4727478027344 382.5780029296875 L 141.4786529541016 382.5780029296875 C 141.7547760009766 382.5780029296875 141.9794158935547 382.8026428222656 141.9794158935547 383.0787658691406 C 141.9794158935547 383.3548889160156 141.7547760009766 383.5795288085938 141.4786529541016 383.5795288085938 L 141.4727478027344 383.5795288085938 C 141.1966400146484 383.5795288085938 140.9720001220703 383.3548889160156 140.9720001220703 383.0787658691406 C 140.9720001220703 382.8026428222656 141.1966400146484 382.5780029296875 141.4727478027344 382.5780029296875 Z" stroke="none" fill="#000"/>
    </g>
  </g>
</svg>
