<svg xmlns="http://www.w3.org/2000/svg" width="14.555" height="14.555" viewBox="0 0 14.555 14.555">
  <g id="statistics" transform="translate(0 0)">
    <path id="Path_957" data-name="Path 957" d="M32.279,6.823a1.273,1.273,0,0,0,.885-.36l1.262.631a1.253,1.253,0,0,0-.016.155,1.279,1.279,0,0,0,2.558,0,1.264,1.264,0,0,0-.128-.548l1.712-1.712a1.264,1.264,0,0,0,.548.128,1.281,1.281,0,0,0,1.279-1.279,1.26,1.26,0,0,0-.064-.379L41.8,2.343a1.278,1.278,0,1,0-.571-1.064,1.26,1.26,0,0,0,.064.379L39.81,2.774a1.274,1.274,0,0,0-1.859,1.612L36.239,6.1a1.257,1.257,0,0,0-1.433.231L33.543,5.7a1.253,1.253,0,0,0,.016-.155,1.279,1.279,0,1,0-1.279,1.279Zm0,0" transform="translate(-30.119)"/>
    <path id="Path_958" data-name="Path 958" d="M14.128,159.438h-.455v-9.011a.426.426,0,0,0-.426-.426H11.541a.426.426,0,0,0-.426.426v9.011h-.853v-6.453a.426.426,0,0,0-.426-.426H8.13a.426.426,0,0,0-.426.426v6.453H6.851V156.4a.426.426,0,0,0-.426-.426H4.719a.426.426,0,0,0-.426.426v3.042H3.44V154.69a.426.426,0,0,0-.426-.426H1.308a.426.426,0,0,0-.426.426v4.747H.426a.426.426,0,1,0,0,.853h13.7a.426.426,0,1,0,0-.853Zm0,0" transform="translate(0 -145.736)"/>
  </g>
</svg>
