<svg xmlns="http://www.w3.org/2000/svg" width="18.139" height="14.855" viewBox="0 0 18.139 14.855">
  <g id="user-interface" transform="translate(-4.1 -15.1)">
    <path id="Path_929" data-name="Path 929" d="M20.633,15.25H5.705A1.457,1.457,0,0,0,4.25,16.705V28.2a1.607,1.607,0,0,0,1.6,1.6H20.484a1.607,1.607,0,0,0,1.6-1.6V16.705A1.457,1.457,0,0,0,20.633,15.25Zm.933,1.455v1.744H11.511l1.266-2.677h7.857a.934.934,0,0,1,.933.933ZM5.705,15.772H12.2l-1.266,2.677H4.772V16.705a.934.934,0,0,1,.933-.933Zm14.779,13.51H5.855A1.083,1.083,0,0,1,4.772,28.2V18.972H21.566V28.2A1.083,1.083,0,0,1,20.484,29.282Z" stroke="#000" stroke-width="0.3"/>
    <path id="Path_930" data-name="Path 930" d="M16.678,23.684a.858.858,0,1,0-.858-.858A.858.858,0,0,0,16.678,23.684Zm0-1.194a.336.336,0,1,1-.336.336A.336.336,0,0,1,16.678,22.489Z" transform="translate(-9.843 -5.714)" stroke="#000" stroke-width="0.3"/>
    <path id="Path_931" data-name="Path 931" d="M32.734,23.684a.858.858,0,1,0-.858-.858A.858.858,0,0,0,32.734,23.684Zm0-1.194a.336.336,0,1,1-.336.336A.336.336,0,0,1,32.734,22.489Z" transform="translate(-23.502 -5.714)" stroke="#000" stroke-width="0.3"/>
    <path id="Path_932" data-name="Path 932" d="M66.033,26.489h6.679a.261.261,0,0,0,0-.522H66.033a.261.261,0,1,0,0,.522Z" transform="translate(-52.338 -9.117)" stroke="#000" stroke-width="0.3"/>
    <path id="Path_933" data-name="Path 933" d="M23.61,78.467H16.444a.261.261,0,0,0,0,.522H23.61a.261.261,0,0,0,0-.522Z" transform="translate(-10.152 -53.78)" stroke="#000" stroke-width="0.3"/>
    <path id="Path_934" data-name="Path 934" d="M22.006,89.467H16.444a.261.261,0,0,0,0,.522h5.562a.261.261,0,0,0,0-.522Z" transform="translate(-10.152 -63.138)" stroke="#000" stroke-width="0.3"/>
    <path id="Path_935" data-name="Path 935" d="M16.444,67.989h5.562a.261.261,0,0,0,0-.522H16.444a.261.261,0,0,0,0,.522Z" transform="translate(-10.152 -44.422)" stroke="#000" stroke-width="0.3"/>
    <path id="Path_936" data-name="Path 936" d="M23.61,56.467H16.444a.261.261,0,0,0,0,.522H23.61a.261.261,0,0,0,0-.522Z" transform="translate(-10.152 -35.064)" stroke="#000" stroke-width="0.3"/>
    <path id="Path_937" data-name="Path 937" d="M85.993,85.1H82.03a.261.261,0,0,0-.261.261v1.473a.261.261,0,0,0,.261.261h3.963a.261.261,0,0,0,.261-.261V85.361A.261.261,0,0,0,85.993,85.1Zm-.261,1.473H82.291v-.951h3.441Z" transform="translate(-65.947 -59.423)" stroke="#000" stroke-width="0.3"/>
    <path id="Path_938" data-name="Path 938" d="M84.012,50.967a2.243,2.243,0,1,0,2.243,2.243A2.243,2.243,0,0,0,84.012,50.967Zm0,3.963a1.72,1.72,0,1,1,1.72-1.72A1.72,1.72,0,0,1,84.012,54.93Z" transform="translate(-65.947 -30.385)" stroke="#000" stroke-width="0.3"/>
  </g>
</svg>
