<svg id="vector" xmlns="http://www.w3.org/2000/svg" width="14.555" height="14.555" viewBox="0 0 14.555 14.555">
  <g id="Group_603" data-name="Group 603">
    <g id="Group_602" data-name="Group 602">
      <path id="Path_939" data-name="Path 939" d="M14.128,0H12.423A.426.426,0,0,0,12,.426V.853H8.483a1.279,1.279,0,0,0-2.412,0H2.558V.426A.426.426,0,0,0,2.132,0H.426A.426.426,0,0,0,0,.426V2.132a.426.426,0,0,0,.426.426H2.132a.426.426,0,0,0,.426-.426V1.7H4.332A5.6,5.6,0,0,0,1.746,6.068a1.279,1.279,0,1,0,.855.008A4.761,4.761,0,0,1,6.132,1.847a1.278,1.278,0,0,0,2.291,0,4.761,4.761,0,0,1,3.531,4.229,1.28,1.28,0,1,0,.855-.008,5.592,5.592,0,0,0-2.586-4.362H12v.426a.426.426,0,0,0,.426.426h1.706a.426.426,0,0,0,.426-.426V.426A.426.426,0,0,0,14.128,0ZM1.706,1.706H.853V.853h.853Zm.455,6a.426.426,0,1,1,.426-.426A.427.427,0,0,1,2.16,7.7Zm5.117-6A.426.426,0,1,1,7.7,1.279.427.427,0,0,1,7.277,1.706Zm5.117,5.145a.426.426,0,1,1-.426.426A.427.427,0,0,1,12.394,6.851ZM13.7,1.706h-.853V.853H13.7Z"/>
    </g>
  </g>
  <g id="Group_605" data-name="Group 605" transform="translate(3.44 3.44)">
    <g id="Group_604" data-name="Group 604">
      <path id="Path_940" data-name="Path 940" d="M128.6,126.317l-3.411-5.117h0l0-.005-.018-.025a.426.426,0,0,0-.683.025l0,.005h0l-3.411,5.117a.426.426,0,0,0,.053.538,5.4,5.4,0,0,1,1.54,3.153,2.2,2.2,0,0,0-.191.173,2.161,2.161,0,0,0-.621,1.518.426.426,0,0,0,.426.426H127.4a.426.426,0,0,0,.426-.426,2.162,2.162,0,0,0-.621-1.518,2.2,2.2,0,0,0-.191-.173,5.4,5.4,0,0,1,1.54-3.153A.426.426,0,0,0,128.6,126.317Zm-3.766-.19a.426.426,0,1,1-.426.426A.427.427,0,0,1,124.838,126.127Zm-2.059,5.145a1.3,1.3,0,0,1,1.207-.881h1.706a1.3,1.3,0,0,1,1.207.881Zm3.431-1.669a2.1,2.1,0,0,0-.519-.065h-1.706a2.094,2.094,0,0,0-.519.065,6.257,6.257,0,0,0-1.5-3.1l2.442-3.663v2.5a1.279,1.279,0,1,0,.853,0v-2.5l2.442,3.663A6.256,6.256,0,0,0,126.209,129.6Z" transform="translate(-121 -121.01)"/>
    </g>
  </g>
</svg>
