<svg xmlns="http://www.w3.org/2000/svg" width="599.618" height="338.785" viewBox="0 0 599.618 338.785">
  <g id="CIXCHANGE_1_" data-name="CIXCHANGE (1)" transform="translate(-237.857 187.003)">
    <g id="Group_147" data-name="Group 147" transform="translate(237.857 94.132)">
      <path id="Path_226" data-name="Path 226" d="M517.711,481.993c0,2.41-1.242,3.627-3.577,3.627H477.863q-13.217,0-13.217,5.267v27.651q0,6.211,14.633,6.211H513.9q3.727,0,3.727,4.174c0,2.782-1.242,4.223-3.727,4.223H479.279a65.282,65.282,0,0,1-10.086-.546,26.517,26.517,0,0,1-6.969-2.484,15.893,15.893,0,0,1-5.776-4.484,11.354,11.354,0,0,1-1.975-6.931V490.937a11.068,11.068,0,0,1,4.807-8.993,22.709,22.709,0,0,1,9.813-4.124q1.466-.223,3.577-.373c1.416-.087,3.081-.136,4.969-.136h36.495Q517.711,477.31,517.711,481.993Z" transform="translate(-454.461 -476.689)" fill="#fff"/>
      <path id="Path_227" data-name="Path 227" d="M521.989,529.549c0,2.422-1.242,3.627-3.577,3.627-1.031,0-1.926,0-2.658-.075s-1.242-.1-1.739-.149a3.142,3.142,0,0,1-2.2-3.4V480.894a3.056,3.056,0,0,1,2.149-3.341c.335-.062.882-.112,1.615-.162s1.677-.074,2.832-.074a3.168,3.168,0,0,1,3.577,3.577Z" transform="translate(-440.578 -476.695)" fill="#fff"/>
      <path id="Path_228" data-name="Path 228" d="M594.133,529.914c0,1.155-.733,2.062-2.211,2.708a11.5,11.5,0,0,1-3.727.77,5.65,5.65,0,0,1-3.726-1.093l-25.465-21.464L533.317,532.3a7.167,7.167,0,0,1-4.211.919q-5.428,0-5.416-3.217a4.323,4.323,0,0,1,1.838-3.2l26.185-22.061L526.4,483.618a4.249,4.249,0,0,1-1.789-3.2,2.782,2.782,0,0,1,2.658-2.944,40.2,40.2,0,0,1,4.534-.137,3.416,3.416,0,0,1,2.3.783L558.943,498.9,583.7,478.165c.671-.546,2.484-.832,5.316-.832s4.124,1.031,4.124,3.081a4.248,4.248,0,0,1-1.789,3.2l-25.167,21.117L592.27,526.8A4.447,4.447,0,0,1,594.133,529.914Z" transform="translate(-437.695 -476.687)" fill="#fff"/>
      <path id="Path_229" data-name="Path 229" d="M646.151,481.993c0,2.41-1.242,3.627-3.578,3.627H606.3q-13.2,0-13.217,5.267v27.651q0,6.211,14.633,6.211h34.619q3.727,0,3.726,4.174c0,2.782-1.242,4.223-3.726,4.223H607.719a65.283,65.283,0,0,1-10.086-.546,26.5,26.5,0,0,1-6.969-2.485,16.062,16.062,0,0,1-5.788-4.484,11.426,11.426,0,0,1-1.963-6.931V490.937a11.068,11.068,0,0,1,4.807-8.993,22.709,22.709,0,0,1,9.813-4.124q1.478-.224,3.577-.373c1.416-.087,3.081-.136,4.969-.136h36.458Q646.151,477.31,646.151,481.993Z" transform="translate(-423.357 -476.689)" fill="#fff"/>
      <path id="Path_230" data-name="Path 230" d="M709.9,529.549a3.2,3.2,0,0,1-3.627,3.627,19.533,19.533,0,0,1-4.348-.273c-1.416-.4-2.112-1.515-2.112-3.354V509.675H650.459v19.875c0,2.422-1.242,3.627-3.578,3.627-1.031,0-1.925,0-2.658-.075s-1.316-.1-1.739-.149a3.143,3.143,0,0,1-2.2-3.4V480.894a3.055,3.055,0,0,1,2.136-3.341c.335-.062.882-.112,1.615-.162s1.677-.074,2.832-.074a3.168,3.168,0,0,1,3.578,3.577V501.3h49.364V480.894a3.056,3.056,0,0,1,2.149-3.292,19.115,19.115,0,0,1,4.31-.286c2.484,0,3.627,1.242,3.627,3.577Z" transform="translate(-409.467 -476.695)" fill="#fff"/>
      <path id="Path_231" data-name="Path 231" d="M779.078,529.49a4.857,4.857,0,0,1-4.969,4.969,5.528,5.528,0,0,1-4.77-2.745L760.309,518.6H717.342l-8.981,13.1a4.037,4.037,0,0,1-3.167,2.149,5.541,5.541,0,0,1-3.255-1.093,3.379,3.379,0,0,1-1.739-2.807,1.564,1.564,0,0,1,.273-.907l32.184-49.215q1.975-3.018,6.795-3.018,3.577,0,4.77,2.012a3.5,3.5,0,0,1,.2.385,4.851,4.851,0,0,0,.348.621l34.122,48.3a3.221,3.221,0,0,1,.187,1.366Zm-24.719-19.316-15.465-22.794-15.54,22.794Z" transform="translate(-394.951 -476.81)" fill="#fff"/>
      <path id="Path_232" data-name="Path 232" d="M836.844,527.238c0,4.261-1.875,6.385-5.6,6.385q-2.571,0-5.825-2.708l-47.55-40.408v39.116a3.143,3.143,0,0,1-2.2,3.4c-.435,0-1.019.112-1.751.149s-1.615.074-2.658.074c-2.385,0-3.578-1.242-3.578-3.627V483.029c0-4.024,1.752-6.049,5.242-6.049a10.694,10.694,0,0,1,6.782,2.932l46.954,39.948V480.968a3.106,3.106,0,0,1,2.186-3.342c.435-.062,1.006-.112,1.739-.161s1.615-.075,2.646-.075q3.615,0,3.615,3.578Z" transform="translate(-378.609 -476.769)" fill="#fff"/>
      <path id="Path_233" data-name="Path 233" d="M896.721,518.968q0,7.6-7.565,11.316a32.19,32.19,0,0,1-14.31,2.894H851.73a39.376,39.376,0,0,1-15.266-2.609q-8.534-3.578-8.534-11.428V491.168q0-7.453,8.7-11.179a41.151,41.151,0,0,1,15.18-2.708h9.167q3.726,0,3.726,4.136c0,2.758-1.242,4.174-3.726,4.174H858.2a1.244,1.244,0,0,1-.46,0l-1.876-.074h-1.329q-16.421,0-16.421,5.689v27.961q0,5.677,13.763,5.677h22.968a22.363,22.363,0,0,0,7.018-1.242q4.67-1.565,4.683-4.223v-14.5a3.23,3.23,0,0,1,2.2-3.342,27.328,27.328,0,0,1,4.4-.236,3.167,3.167,0,0,1,3.578,3.577Z" transform="translate(-364.019 -476.697)" fill="#fff"/>
      <path id="Path_234" data-name="Path 234" d="M949.47,505.244c0,2.956-1.242,4.447-3.813,4.447H896.641v9.167q0,5.925,13.067,5.913h35.948c2.385,0,3.578,1.242,3.578,3.627q0,4.77-3.578,4.77H909.249a36.778,36.778,0,0,1-14.658-2.832q-8.161-3.727-8.161-11.093v-27.7a11.1,11.1,0,0,1,2.708-7.254q5.875-6.969,20.956-6.969h9.937c2.36,0,3.528,1.565,3.528,4.683,0,2.41-1.167,3.627-3.528,3.627h-2.894a1.642,1.642,0,0,1-.546,0l-1.963-.074h-1.379q-16.757,0-16.744,6.062v9.763h49.165Q949.47,501.294,949.47,505.244Z" transform="translate(-349.852 -476.687)" fill="#fff"/>
    </g>
    <g id="Group_149" data-name="Group 149" transform="translate(437.857 -187.003)">
      <g id="Group_148" data-name="Group 148" transform="translate(3.531 15.077)">
        <path id="Path_235" data-name="Path 235" d="M327.394,468.409c1.366-.211,2.869-1.056,4.658-3.366a4.97,4.97,0,0,0,1.093-3.068,6.484,6.484,0,0,0-12.7-1.813,6.317,6.317,0,0,0-.261,1.764,4.435,4.435,0,0,1-1.019,2.72,77.325,77.325,0,0,0-16.62,43.786,4.372,4.372,0,0,1-1.093,2.745,6.472,6.472,0,1,0,9.639.174,4.522,4.522,0,0,1-1.18-3.28,68.881,68.881,0,0,1,3.726-18.334,72.042,72.042,0,0,1,10.583-19.552A4.7,4.7,0,0,1,327.394,468.409Z" transform="translate(-257.423 -402.903)" fill="#fff"/>
        <path id="Path_236" data-name="Path 236" d="M423.474,426.053a6.656,6.656,0,0,0,2.211,0,7.34,7.34,0,0,1,5.267,1.143,14.509,14.509,0,0,1,2.7,2.4c3.105,3.913.658,10.372-4.186,11.391-2.758.87-5.391-.621-7.59-2.149a99.373,99.373,0,0,0-64.593-14.508,7.019,7.019,0,0,1-4.112-.882,6.477,6.477,0,1,0,1.5,10.235,7.291,7.291,0,0,1,4.571-2.236h0a91.609,91.609,0,0,1,60.1,14.5,14.906,14.906,0,0,0,15.912.534,14.744,14.744,0,0,0,.658-24.769c-.82-.547-1.652-1.081-2.484-1.6a7.84,7.84,0,0,1-2.807-3.279,6.484,6.484,0,1,0-7.13,9.18Z" transform="translate(-246.801 -413.165)" fill="#fff"/>
        <path id="Path_237" data-name="Path 237" d="M308.977,570.926a6.472,6.472,0,0,0,.385-12.546,5.079,5.079,0,0,1-2.894-2.05c-.323-.484-.621-.981-.919-1.478a91.522,91.522,0,0,1-12.981-60.27,4.969,4.969,0,0,1,1.677-3.056,6.4,6.4,0,0,0,2.087-5.739,6.473,6.473,0,1,0-11.875,4.385,5.153,5.153,0,0,1,.832,3.5,99.61,99.61,0,0,0,14.993,66.878,5.341,5.341,0,0,1,.795,3.453,4.858,4.858,0,0,0,0,.6,6.484,6.484,0,0,0,7.9,6.323Z" transform="translate(-261.365 -396.929)" fill="#fff"/>
        <path id="Path_238" data-name="Path 238" d="M354.852,566.909a6.472,6.472,0,1,0,0-12.931,6.633,6.633,0,0,1-3.8-.795,47.824,47.824,0,0,1-4.559-79.946A6.136,6.136,0,0,1,350.144,472a5.955,5.955,0,0,0,2.422-.522,6.646,6.646,0,0,0,4.1-5.677,6.484,6.484,0,0,0-6-6.745,5.714,5.714,0,0,0-3.9,1.242,7.192,7.192,0,0,0-2.907,3.962,6.46,6.46,0,0,1-2.385,3.64,54.432,54.432,0,0,0-12.161,12.757,55.277,55.277,0,0,0,16.844,78.306,6.408,6.408,0,0,1,2.82,3.5A6.472,6.472,0,0,0,354.852,566.909Z" transform="translate(-252.585 -402.055)" fill="#fff"/>
        <path id="Path_239" data-name="Path 239" d="M349.455,592.34a6.432,6.432,0,0,0,4.671-.472,7.827,7.827,0,0,1,4.459-.845c28.508,3.031,58.27-6.931,78.766-27.092a14.645,14.645,0,0,0-14.136-24.222,15.42,15.42,0,0,0-7.229,4.112,69.291,69.291,0,0,1-20.2,12.98,10.976,10.976,0,0,1-7.167.248,6.772,6.772,0,0,0-2.658-.174A6.484,6.484,0,1,0,391.9,567.41a9.789,9.789,0,0,1,4.2-2.832,76.3,76.3,0,0,0,25.092-15.552,7.341,7.341,0,0,1,12.67,6.149c-.5,3.416-3.726,5.341-6,7.453A91.922,91.922,0,0,1,359.7,583.744a5.368,5.368,0,0,1-3.565-1.851,6.472,6.472,0,1,0-6.683,10.4Z" transform="translate(-246.53 -382.618)" fill="#fff"/>
        <path id="Path_240" data-name="Path 240" d="M334.759,595.542a6.43,6.43,0,0,0-3.23-.211,5.278,5.278,0,0,1-3.726-.6,114.378,114.378,0,0,1-49.823-66.99,4.6,4.6,0,0,1,.124-2.919,6.453,6.453,0,1,0-9.2,3.167,5.143,5.143,0,0,1,2.484,3.031,121.51,121.51,0,0,0,53.252,70.307,4.868,4.868,0,0,1,2.087,2.484,6.472,6.472,0,1,0,8.149-8.3Z" transform="translate(-265.671 -388.305)" fill="#fff"/>
      </g>
      <path id="Path_241" data-name="Path 241" d="M418.308,585.474c-2.919,1.242-4.509,4.882-5.229,7.2a4.261,4.261,0,0,1-2.758,2.807,115.409,115.409,0,0,1-67.586.795c-.1-7.167,0-14.347,0-21.5.224-1.466-1.155-2.273-2.311-2.745l-1.031-.447a5.626,5.626,0,0,1-3.23-3.727,9.534,9.534,0,1,0-4.149,10.372,3.727,3.727,0,0,1,3.54-.211h0v21.7a2.348,2.348,0,0,0,2.037,2.546,122.973,122.973,0,0,0,74.667.273,8.561,8.561,0,0,1,6,.385,9.39,9.39,0,0,0,4.969.733,9.527,9.527,0,1,0-4.869-18.223Z" transform="translate(-249.607 -362.365)" fill="#fff"/>
      <path id="Path_242" data-name="Path 242" d="M408.57,527.439A9.665,9.665,0,0,0,400,532.755a8.942,8.942,0,0,0-.956,2.658,6.559,6.559,0,0,1-4.05,5.043,45.6,45.6,0,0,1-14.347,3.056c-2.248,0-6.41-.522-6.211,2.882v19.055c-18.558-.758-36.234-9.739-48.444-23.527a6.683,6.683,0,0,1-1.54-5.478,9.357,9.357,0,0,0-.087-3.317,9.515,9.515,0,1,0-11.95,11.031,9.04,9.04,0,0,0,2.82.373,6.646,6.646,0,0,1,5.143,2.249,78.267,78.267,0,0,0,17.676,14.906,76.814,76.814,0,0,0,40.06,11.254,3.317,3.317,0,0,0,3.54-3.466V550.841a55.494,55.494,0,0,0,18.869-4.708,6.372,6.372,0,0,1,4.708-.249,9.5,9.5,0,1,0,3.366-18.446Z" transform="translate(-252.49 -370.884)" fill="#fff"/>
      <path id="Path_243" data-name="Path 243" d="M422.51,454.241c-21.663-14.024-50.519-15.651-73.847-4.745V429.783a2.559,2.559,0,0,0-3.726-2.546,99.248,99.248,0,0,0-37.265,26,15.056,15.056,0,0,1-7.527,4.3,7.925,7.925,0,0,0-1.59.571,9.677,9.677,0,0,0-5.764,8.782,9.5,9.5,0,0,0,18.918,1.18,10.533,10.533,0,0,0,.087-1.64,14.905,14.905,0,0,1,4.1-11.068,95.648,95.648,0,0,1,25.626-18.633c.1,7.242-.174,14.509.124,21.75.845,2.136,3.5,1.6,4.969.472a69.562,69.562,0,0,1,71.822,1.329,4.782,4.782,0,0,1,1.242,6.621,31.594,31.594,0,0,1-4.447,5.18c-1.727,1.428-4.149.932-5.863-.211a51.063,51.063,0,0,0-4.633-2.41,9.367,9.367,0,0,1-4.236-4,9.49,9.49,0,0,0-9.055-4.894,9.529,9.529,0,1,0,5.242,17.9,9.316,9.316,0,0,1,9.155-.1l.2.112a12.6,12.6,0,0,0,11.391.845c3.528-1.54,5.7-4.969,8.062-7.826a12.285,12.285,0,0,0-2.981-17.254Z" transform="translate(-255.573 -394.75)" fill="#fff"/>
      <path id="Path_244" data-name="Path 244" d="M410.947,401.18a9.5,9.5,0,0,0-8.161,2.385,6.111,6.111,0,0,1-4.646,1.491,122.665,122.665,0,0,0-53.773,7.788,120.752,120.752,0,0,0-74.393,88.07,9.453,9.453,0,0,1-3.4,5.652,9.5,9.5,0,1,0,12.993,1.391,9.3,9.3,0,0,1-1.851-8.136,113.7,113.7,0,0,1,68.419-79.809,115.348,115.348,0,0,1,49.823-7.838,6.472,6.472,0,0,1,5.118,3.217,9.5,9.5,0,1,0,9.85-14.248Z" transform="translate(-262.828 -401.027)" fill="#fff"/>
    </g>
  </g>
</svg>
