<svg id="paperclip" xmlns="http://www.w3.org/2000/svg" width="13.773" height="15.467" viewBox="0 0 13.773 15.467">
  <g id="Group_341" data-name="Group 341" transform="translate(0 0)">
    <path id="Path_517" data-name="Path 517" d="M40.688,1.127a3.857,3.857,0,0,0-5.449,0L29.5,6.864a.453.453,0,1,0,.641.641L35.88,1.767a3.018,3.018,0,0,1,4.167,0,2.95,2.95,0,0,1,0,4.167l-8.011,8.1a1.856,1.856,0,0,1-2.564,0,1.815,1.815,0,0,1,0-2.564L37.162,3.69a.7.7,0,0,1,.961,0,.681.681,0,0,1,0,.962l-7.37,7.46a.505.505,0,0,0,0,.641.453.453,0,0,0,.641,0l7.37-7.46a1.588,1.588,0,0,0,0-2.244,1.625,1.625,0,0,0-2.243,0l-7.691,7.781a2.737,2.737,0,0,0,0,3.846,2.734,2.734,0,0,0,3.846,0l8.011-8.1A3.857,3.857,0,0,0,40.688,1.127Z" transform="translate(-28.042 0)" fill="#454564"/>
  </g>
</svg>
