<svg xmlns="http://www.w3.org/2000/svg" xmlns:xlink="http://www.w3.org/1999/xlink" width="36.191" height="36.191" viewBox="0 0 36.191 36.191">
  <defs>
    <radialGradient id="radial-gradient" cx="0.66" cy="0.496" r="0.721" gradientTransform="matrix(-0.712, -0.702, -0.702, 0.712, -3.158, -1.295)" gradientUnits="objectBoundingBox">
      <stop offset="0" stop-color="#ffef99"/>
      <stop offset="0.52" stop-color="#ffd71b"/>
      <stop offset="1" stop-color="#e69900"/>
    </radialGradient>
    <linearGradient id="linear-gradient" x1="0.5" y1="-0.156" x2="0.5" y2="1.106" gradientUnits="objectBoundingBox">
      <stop offset="0" stop-color="#ffd71b"/>
      <stop offset="1" stop-color="#e69900"/>
    </linearGradient>
    <radialGradient id="radial-gradient-2" cx="0.5" cy="0.5" r="1.231" gradientTransform="translate(0.35) scale(0.3 1)" gradientUnits="objectBoundingBox">
      <stop offset="0" stop-color="#693718"/>
      <stop offset="0.38" stop-color="#653416"/>
      <stop offset="0.73" stop-color="#5a2c0f"/>
      <stop offset="1" stop-color="#4c2207"/>
    </radialGradient>
    <linearGradient id="linear-gradient-2" x1="0.376" y1="0.067" x2="0.376" y2="1.066" xlink:href="#linear-gradient"/>
    <clipPath id="clip-path">
      <ellipse id="Ellipse_308" data-name="Ellipse 308" cx="1.691" cy="2.14" rx="1.691" ry="2.14" transform="matrix(1, -0.007, 0.007, 1, 0, 0.024)" fill="none"/>
    </clipPath>
    <linearGradient id="linear-gradient-3" x1="0.376" y1="0.082" x2="0.376" y2="1.082" xlink:href="#linear-gradient"/>
    <clipPath id="clip-path-2">
      <ellipse id="Ellipse_310" data-name="Ellipse 310" cx="1.691" cy="2.14" rx="1.691" ry="2.14" transform="translate(0 0.034) rotate(-0.573)" fill="none"/>
    </clipPath>
  </defs>
  <g id="_22" data-name="22" transform="translate(169.443 169.439)">
    <g id="Layer_1" data-name="Layer 1" transform="translate(-169.443 -169.439)">
      <g id="Group_601" data-name="Group 601" transform="translate(0 0)">
        <g id="Group_594" data-name="Group 594" transform="translate(0.962 1.006)">
          <circle id="Ellipse_301" data-name="Ellipse 301" cx="12.115" cy="12.115" r="12.115" transform="translate(0 17.133) rotate(-45)" fill="#e2e2e2"/>
        </g>
        <circle id="Ellipse_302" data-name="Ellipse 302" cx="12.795" cy="12.795" r="12.795" transform="translate(0 18.095) rotate(-45)" fill="url(#radial-gradient)"/>
        <g id="Group_595" data-name="Group 595" transform="translate(11.102 21.179)">
          <path id="Path_870" data-name="Path 870" d="M743.475,607.419l-.148,0c-.1,0-.21,0-.316-.009l-.232-.013c-.091,0-.168-.01-.24-.018l-.227-.023c-.054-.006-.106-.013-.156-.02l-.076-.01c-.136-.017-.282-.04-.466-.075-.058-.01-.118-.023-.176-.035l-.131-.028-.156-.035c-.156-.038-.307-.076-.457-.123s-.313-.1-.445-.141c-.05-.017-.1-.036-.15-.055l-.071-.027c-.083-.031-.156-.059-.223-.087a8.719,8.719,0,0,1-1.653-.888,7.732,7.732,0,0,1-.743-.582c-.125-.112-.238-.219-.346-.331-.061-.062-.115-.123-.166-.18l-.082-.094-.087-.106a.873.873,0,0,1,.013-1.22.739.739,0,0,1,.542-.219,1.365,1.365,0,0,1,.678.211l.029.017.078.048c.049.029.1.059.153.089.109.063.223.125.324.177.236.122.454.226.666.318a10.5,10.5,0,0,0,2.811.782l.133.016c.075.009.152.019.226.025l.072.007.11.01.185.012c.079.007.156.01.232.013l.137.006c.071,0,.145,0,.219,0,.049,0,.1,0,.146,0s.09,0,.139,0c.075,0,.149,0,.224,0l.132-.006c.076,0,.155-.006.229-.013l.19-.013.109-.01.07-.007c.076-.006.153-.016.228-.025l.137-.017a10.513,10.513,0,0,0,2.807-.782c.212-.091.43-.2.667-.318.1-.054.215-.114.32-.175.054-.031.106-.06.156-.091l.074-.045.031-.019a1.3,1.3,0,0,1,.668-.219.755.755,0,0,1,.551.226.873.873,0,0,1,.013,1.22l-.084.1-.083.1c-.053.059-.107.118-.166.181-.109.113-.223.221-.347.332a7.707,7.707,0,0,1-.743.582,8.718,8.718,0,0,1-1.658.889c-.065.027-.138.056-.219.086l-.072.027c-.05.019-.1.038-.15.054-.131.045-.287.1-.449.142-.146.045-.3.083-.452.121-.052.013-.1.024-.156.035l-.131.028c-.058.013-.118.026-.179.036-.183.034-.326.058-.464.075l-.074.01-.156.02-.23.024c-.071.008-.147.014-.24.019l-.228.013c-.108,0-.214.007-.317.009l-.148,0h-.01Z" transform="translate(-736.487 -603.087)" fill="url(#linear-gradient)"/>
          <path id="Path_871" data-name="Path 871" d="M746.465,610.412l-.148,0c-.1,0-.208,0-.313-.009l-.23-.013c-.089,0-.164-.01-.235-.018l-.228-.023-.156-.02-.076-.01c-.135-.017-.277-.04-.46-.074-.058-.01-.116-.023-.173-.035l-.131-.028c-.051-.011-.1-.022-.152-.034-.154-.038-.3-.076-.451-.121s-.313-.1-.442-.14l-.147-.053-.072-.027c-.082-.031-.154-.058-.219-.085a8.659,8.659,0,0,1-1.636-.878,7.746,7.746,0,0,1-.734-.575c-.123-.11-.235-.216-.341-.326-.06-.063-.113-.121-.163-.178l-.081-.094-.088-.107a.774.774,0,0,1,.009-1.084.646.646,0,0,1,.475-.189,1.308,1.308,0,0,1,.626.2l.031.019.076.047c.05.031.1.06.156.09.11.063.225.125.326.179.238.125.458.229.672.321a10.582,10.582,0,0,0,2.837.789l.134.016c.076.01.154.02.23.026l.07.007.113.011.185.012c.079.007.159.01.236.013.045,0,.09,0,.135.006.073,0,.149,0,.224,0l.145,0,.141,0c.076,0,.151,0,.227,0l.133-.006c.077,0,.156-.006.233-.013l.188-.012.113-.011.069-.007c.077-.006.156-.016.231-.026l.136-.017a10.6,10.6,0,0,0,2.835-.789c.214-.092.434-.2.673-.322.1-.053.216-.115.324-.177q.081-.046.156-.091L752,606.5l.034-.02a1.213,1.213,0,0,1,.616-.2.659.659,0,0,1,.482.2.774.774,0,0,1,.01,1.084l-.086.105-.082.094c-.052.058-.1.115-.163.177-.107.11-.219.217-.342.327a7.694,7.694,0,0,1-.734.574,8.66,8.66,0,0,1-1.637.879c-.064.027-.136.055-.219.085l-.073.027c-.049.018-.1.037-.146.053-.13.044-.285.1-.444.141s-.3.083-.449.12c-.051.013-.1.023-.153.034l-.131.028c-.057.012-.115.025-.175.035-.181.034-.324.057-.459.074l-.076.01-.154.02-.23.023c-.069.008-.144.014-.234.018l-.229.013c-.106.005-.211.007-.313.009l-.148,0h0Z" transform="translate(-739.473 -606.177)" fill="url(#radial-gradient-2)"/>
        </g>
        <g id="Group_600" data-name="Group 600" transform="translate(11.317 12.544)">
          <g id="Group_597" data-name="Group 597" transform="translate(0 0.1)">
            <path id="Path_872" data-name="Path 872" d="M745.133,334.7a2.286,2.286,0,1,1,1.764-2.242A2.045,2.045,0,0,1,745.133,334.7Z" transform="translate(-743.338 -330.239)" fill="url(#linear-gradient-2)"/>
            <g id="Group_596" data-name="Group 596" transform="translate(0.075 0.075)" clip-path="url(#clip-path)">
              <rect id="Rectangle_542" data-name="Rectangle 542" width="3.398" height="4.294" transform="translate(0.006 0.008)" fill="#4c2207"/>
              <ellipse id="Ellipse_303" data-name="Ellipse 303" cx="1.791" cy="2.313" rx="1.791" ry="2.313" transform="matrix(1, -0.007, 0.007, 1, -0.119, -0.127)" fill="#4c2207"/>
              <ellipse id="Ellipse_304" data-name="Ellipse 304" cx="1.729" cy="2.233" rx="1.729" ry="2.233" transform="matrix(1, -0.007, 0.007, 1, -0.057, -0.047)" fill="#4e2408"/>
              <path id="Path_873" data-name="Path 873" d="M746.348,335.5a1.722,1.722,0,1,1,1.683,2.141A1.958,1.958,0,0,1,746.348,335.5Z" transform="translate(-746.329 -333.317)" fill="#502509"/>
              <path id="Path_874" data-name="Path 874" d="M748.328,337.974a1.659,1.659,0,1,1,1.621,2.062A1.885,1.885,0,0,1,748.328,337.974Z" transform="translate(-748.247 -335.787)" fill="#52260b"/>
              <ellipse id="Ellipse_305" data-name="Ellipse 305" cx="1.544" cy="1.994" rx="1.544" ry="1.994" transform="matrix(1, -0.007, 0.007, 1, 0.13, 0.191)" fill="#54280c"/>
              <ellipse id="Ellipse_306" data-name="Ellipse 306" cx="1.482" cy="1.914" rx="1.482" ry="1.914" transform="matrix(1, -0.007, 0.007, 1, 0.192, 0.27)" fill="#56290d"/>
              <ellipse id="Ellipse_307" data-name="Ellipse 307" cx="1.42" cy="1.834" rx="1.42" ry="1.834" transform="matrix(1, -0.007, 0.007, 1, 0.255, 0.35)" fill="#582a0e"/>
              <path id="Path_875" data-name="Path 875" d="M756.228,347.853a1.4,1.4,0,1,1,1.37,1.745A1.593,1.593,0,0,1,756.228,347.853Z" transform="translate(-755.9 -345.668)" fill="#592c0f"/>
              <path id="Path_876" data-name="Path 876" d="M758.2,350.323a1.34,1.34,0,1,1,1.309,1.666A1.523,1.523,0,0,1,758.2,350.323Z" transform="translate(-757.808 -348.138)" fill="#5b2d10"/>
              <path id="Path_877" data-name="Path 877" d="M760.178,352.793a1.276,1.276,0,1,1,1.246,1.586A1.45,1.45,0,0,1,760.178,352.793Z" transform="translate(-759.726 -350.609)" fill="#5c2e10"/>
              <path id="Path_878" data-name="Path 878" d="M762.148,355.263a1.212,1.212,0,1,1,1.184,1.507A1.377,1.377,0,0,1,762.148,355.263Z" transform="translate(-761.635 -353.079)" fill="#5e2f11"/>
              <path id="Path_879" data-name="Path 879" d="M764.129,357.733a1.148,1.148,0,1,1,1.122,1.428A1.3,1.3,0,0,1,764.129,357.733Z" transform="translate(-763.553 -355.549)" fill="#5f3012"/>
              <path id="Path_880" data-name="Path 880" d="M766.1,360.2a1.084,1.084,0,1,1,1.06,1.348A1.232,1.232,0,0,1,766.1,360.2Z" transform="translate(-765.461 -358.019)" fill="#603013"/>
              <path id="Path_881" data-name="Path 881" d="M768.069,362.682a1.021,1.021,0,1,1,1,1.27A1.159,1.159,0,0,1,768.069,362.682Z" transform="translate(-767.37 -360.499)" fill="#613113"/>
              <path id="Path_882" data-name="Path 882" d="M770.049,365.132a.957.957,0,1,1,.935,1.188A1.088,1.088,0,0,1,770.049,365.132Z" transform="translate(-769.288 -362.95)" fill="#623214"/>
              <path id="Path_883" data-name="Path 883" d="M772,367.6a.893.893,0,1,1,.873,1.11A1.015,1.015,0,0,1,772,367.6Z" transform="translate(-771.177 -365.42)" fill="#633315"/>
              <path id="Path_884" data-name="Path 884" d="M774,370.072a.829.829,0,1,1,.81,1.032A.943.943,0,0,1,774,370.072Z" transform="translate(-773.115 -367.891)" fill="#643315"/>
              <path id="Path_885" data-name="Path 885" d="M776,372.542a.766.766,0,1,1,.747.952A.87.87,0,0,1,776,372.542Z" transform="translate(-775.052 -370.361)" fill="#653416"/>
              <path id="Path_886" data-name="Path 886" d="M778,375.012a.7.7,0,1,1,.685.872A.8.8,0,0,1,778,375.012Z" transform="translate(-776.99 -372.831)" fill="#663516"/>
              <path id="Path_887" data-name="Path 887" d="M779.919,377.482a.638.638,0,1,1,.623.792A.725.725,0,0,1,779.919,377.482Z" transform="translate(-778.85 -375.302)" fill="#663516"/>
              <path id="Path_888" data-name="Path 888" d="M781.9,379.951a.574.574,0,1,1,.561.714A.652.652,0,0,1,781.9,379.951Z" transform="translate(-780.768 -377.772)" fill="#673517"/>
              <path id="Path_889" data-name="Path 889" d="M783.869,382.421a.51.51,0,1,1,.5.634A.58.58,0,0,1,783.869,382.421Z" transform="translate(-782.677 -380.242)" fill="#673617"/>
              <path id="Path_890" data-name="Path 890" d="M785.84,384.891a.447.447,0,1,1,.436.554A.508.508,0,0,1,785.84,384.891Z" transform="translate(-784.585 -382.712)" fill="#683617"/>
              <path id="Path_891" data-name="Path 891" d="M787.82,387.361a.383.383,0,1,1,.375.476A.435.435,0,0,1,787.82,387.361Z" transform="translate(-786.503 -385.183)" fill="#683618"/>
              <path id="Path_892" data-name="Path 892" d="M789.79,389.831a.319.319,0,1,1,.313.4A.365.365,0,0,1,789.79,389.831Z" transform="translate(-788.412 -387.653)" fill="#693718"/>
              <path id="Path_893" data-name="Path 893" d="M791.77,392.3a.255.255,0,1,1,.25.318A.291.291,0,0,1,791.77,392.3Z" transform="translate(-790.33 -390.123)" fill="#693718"/>
              <path id="Path_894" data-name="Path 894" d="M793.74,394.771a.192.192,0,1,1,.188.238A.218.218,0,0,1,793.74,394.771Z" transform="translate(-792.238 -392.594)" fill="#693718"/>
              <path id="Path_895" data-name="Path 895" d="M795.72,397.24a.128.128,0,1,1,.125.159A.145.145,0,0,1,795.72,397.24Z" transform="translate(-794.156 -395.064)" fill="#693718"/>
              <path id="Path_896" data-name="Path 896" d="M797.677,400.777a.063.063,0,1,1,.063.079A.072.072,0,0,1,797.677,400.777Z" transform="translate(-796.052 -398.601)" fill="#693718"/>
            </g>
          </g>
          <g id="Group_599" data-name="Group 599" transform="translate(9.933 0)">
            <ellipse id="Ellipse_309" data-name="Ellipse 309" cx="1.78" cy="2.229" rx="1.78" ry="2.229" transform="matrix(1, -0.007, 0.007, 1, 0, 0.039)" fill="url(#linear-gradient-3)"/>
            <g id="Group_598" data-name="Group 598" transform="translate(0.12)" clip-path="url(#clip-path-2)">
              <rect id="Rectangle_543" data-name="Rectangle 543" width="3.398" height="4.294" transform="translate(-0.024 0.112)" fill="#4c2207"/>
              <path id="Path_897" data-name="Path 897" d="M1060.438,328.314a1.85,1.85,0,1,1,1.808,2.3A2.1,2.1,0,0,1,1060.438,328.314Z" transform="translate(-1060.572 -326.022)" fill="#4c2207"/>
              <path id="Path_898" data-name="Path 898" d="M1062.418,330.784a1.786,1.786,0,1,1,1.745,2.221A2.03,2.03,0,0,1,1062.418,330.784Z" transform="translate(-1062.49 -328.492)" fill="#4e2408"/>
              <path id="Path_899" data-name="Path 899" d="M1064.388,333.254a1.722,1.722,0,1,1,1.683,2.141A1.958,1.958,0,0,1,1064.388,333.254Z" transform="translate(-1064.399 -330.963)" fill="#502509"/>
              <path id="Path_900" data-name="Path 900" d="M1066.368,335.724a1.658,1.658,0,1,1,1.619,2.062A1.885,1.885,0,0,1,1066.368,335.724Z" transform="translate(-1066.317 -333.433)" fill="#52260b"/>
              <path id="Path_901" data-name="Path 901" d="M1068.338,338.194a1.595,1.595,0,1,1,1.558,1.982A1.813,1.813,0,0,1,1068.338,338.194Z" transform="translate(-1068.225 -335.903)" fill="#54280c"/>
              <path id="Path_902" data-name="Path 902" d="M1070.318,340.663a1.532,1.532,0,1,1,1.5,1.9A1.74,1.74,0,0,1,1070.318,340.663Z" transform="translate(-1070.143 -338.373)" fill="#56290d"/>
              <path id="Path_903" data-name="Path 903" d="M1072.288,343.094a1.467,1.467,0,1,1,1.433,1.824A1.669,1.669,0,0,1,1072.288,343.094Z" transform="translate(-1072.052 -340.805)" fill="#582a0e"/>
              <path id="Path_904" data-name="Path 904" d="M1074.258,345.6a1.4,1.4,0,1,1,1.371,1.745A1.595,1.595,0,0,1,1074.258,345.6Z" transform="translate(-1073.961 -343.314)" fill="#592c0f"/>
              <path id="Path_905" data-name="Path 905" d="M1076.238,348.073a1.34,1.34,0,1,1,1.309,1.666A1.522,1.522,0,0,1,1076.238,348.073Z" transform="translate(-1075.879 -345.784)" fill="#5b2d10"/>
              <path id="Path_906" data-name="Path 906" d="M1078.208,350.543a1.276,1.276,0,1,1,1.247,1.586A1.45,1.45,0,0,1,1078.208,350.543Z" transform="translate(-1077.787 -348.254)" fill="#5c2e10"/>
              <path id="Path_907" data-name="Path 907" d="M1080.188,353a1.212,1.212,0,1,1,1.184,1.507A1.378,1.378,0,0,1,1080.188,353Z" transform="translate(-1079.705 -350.715)" fill="#5e2f11"/>
              <path id="Path_908" data-name="Path 908" d="M1082.158,355.473a1.148,1.148,0,1,1,1.122,1.428A1.306,1.306,0,0,1,1082.158,355.473Z" transform="translate(-1081.614 -353.185)" fill="#5f3012"/>
              <path id="Path_909" data-name="Path 909" d="M1084.139,357.943a1.084,1.084,0,1,1,1.059,1.348A1.233,1.233,0,0,1,1084.139,357.943Z" transform="translate(-1083.532 -355.656)" fill="#603013"/>
              <path id="Path_910" data-name="Path 910" d="M1086.109,360.432a1.021,1.021,0,1,1,1,1.269A1.159,1.159,0,0,1,1086.109,360.432Z" transform="translate(-1085.44 -358.145)" fill="#613113"/>
              <path id="Path_911" data-name="Path 911" d="M1088.089,362.882a.957.957,0,1,1,.935,1.188A1.088,1.088,0,0,1,1088.089,362.882Z" transform="translate(-1087.359 -360.596)" fill="#623214"/>
              <path id="Path_912" data-name="Path 912" d="M1090.059,365.352a.893.893,0,1,1,.873,1.11A1.015,1.015,0,0,1,1090.059,365.352Z" transform="translate(-1089.267 -363.066)" fill="#633315"/>
              <path id="Path_913" data-name="Path 913" d="M1092,367.822a.829.829,0,1,1,.811,1.032A.943.943,0,0,1,1092,367.822Z" transform="translate(-1091.146 -365.537)" fill="#643315"/>
              <path id="Path_914" data-name="Path 914" d="M1094,370.292a.766.766,0,1,1,.748.952A.87.87,0,0,1,1094,370.292Z" transform="translate(-1093.084 -368.007)" fill="#653416"/>
              <path id="Path_915" data-name="Path 915" d="M1096,372.762a.7.7,0,1,1,.686.872A.8.8,0,0,1,1096,372.762Z" transform="translate(-1095.021 -370.477)" fill="#663516"/>
              <path id="Path_916" data-name="Path 916" d="M1098,375.232a.638.638,0,1,1,.623.793A.725.725,0,0,1,1098,375.232Z" transform="translate(-1096.959 -372.948)" fill="#663516"/>
              <path id="Path_917" data-name="Path 917" d="M1099.929,377.7a.574.574,0,1,1,.561.714A.653.653,0,0,1,1099.929,377.7Z" transform="translate(-1098.829 -375.418)" fill="#673517"/>
              <path id="Path_918" data-name="Path 918" d="M1101.909,380.131a.51.51,0,1,1,.5.634A.58.58,0,0,1,1101.909,380.131Z" transform="translate(-1100.747 -377.849)" fill="#673617"/>
              <path id="Path_919" data-name="Path 919" d="M1103.879,382.621a.447.447,0,1,1,.438.555A.507.507,0,0,1,1103.879,382.621Z" transform="translate(-1102.655 -380.339)" fill="#683617"/>
              <path id="Path_920" data-name="Path 920" d="M1105.86,385.1a.383.383,0,1,1,.375.476A.435.435,0,0,1,1105.86,385.1Z" transform="translate(-1104.573 -382.819)" fill="#683618"/>
              <path id="Path_921" data-name="Path 921" d="M1107.83,387.581a.319.319,0,1,1,.313.4A.365.365,0,0,1,1107.83,387.581Z" transform="translate(-1106.482 -385.299)" fill="#693718"/>
              <path id="Path_922" data-name="Path 922" d="M1109.81,390.07a.255.255,0,1,1,.25.317A.291.291,0,0,1,1109.81,390.07Z" transform="translate(-1108.4 -387.789)" fill="#693718"/>
              <path id="Path_923" data-name="Path 923" d="M1111.78,392.551a.192.192,0,1,1,.188.238A.218.218,0,0,1,1111.78,392.551Z" transform="translate(-1110.309 -390.269)" fill="#693718"/>
              <path id="Path_924" data-name="Path 924" d="M1113.75,395.04a.128.128,0,1,1,.125.159A.145.145,0,0,1,1113.75,395.04Z" transform="translate(-1112.217 -392.758)" fill="#693718"/>
              <path id="Path_925" data-name="Path 925" d="M1115.73,398a.063.063,0,1,1,.063.063A.063.063,0,0,1,1115.73,398Z" transform="translate(-1114.135 -395.723)" fill="#693718"/>
            </g>
          </g>
        </g>
      </g>
    </g>
  </g>
</svg>
