<svg xmlns="http://www.w3.org/2000/svg" width="31.782" height="28.258" viewBox="0 0 31.782 28.258">
  <g id="audio-speaker-on" transform="translate(0 -6.393)" opacity="0.2">
    <path id="Path_926" data-name="Path 926" d="M13.2,13.411,7.167,17.932H1.654A1.659,1.659,0,0,0,0,19.586V31.108a1.659,1.659,0,0,0,1.654,1.654H7.167L13.2,37.283A1.646,1.646,0,0,0,15.85,35.96V14.735A1.649,1.649,0,0,0,13.2,13.411Z" transform="translate(0 -4.837)" fill="#fff"/>
    <path id="Path_927" data-name="Path 927" d="M68.663,22.639a1.93,1.93,0,0,0-2.729,2.729,9.184,9.184,0,0,1,0,12.983,1.946,1.946,0,0,0,0,2.729,1.9,1.9,0,0,0,2.7-.028A12.969,12.969,0,0,0,68.663,22.639Z" transform="translate(-47.355 -11.363)" fill="#fff"/>
    <path id="Path_928" data-name="Path 928" d="M83.634,6.948a1.947,1.947,0,0,0,0,2.729,15.305,15.305,0,0,1,0,21.666,1.944,1.944,0,0,0,1.351,3.308,1.92,1.92,0,0,0,1.351-.551,19.166,19.166,0,0,0,0-27.124A1.888,1.888,0,0,0,83.634,6.948Z" transform="translate(-60.176)" fill="#fff"/>
  </g>
</svg>
