<svg xmlns="http://www.w3.org/2000/svg" width="115.259" height="109.858" viewBox="0 0 115.259 109.858">
  <g id="coding" transform="translate(0 -11.996)">
    <path id="Path_941" data-name="Path 941" d="M67.349,55.271a7.613,7.613,0,1,0,7.622,7.613A7.623,7.623,0,0,0,67.349,55.271Zm0,10.685a3.073,3.073,0,1,1,3.082-3.072A3.077,3.077,0,0,1,67.349,65.956Z" transform="translate(-46.286 -33.533)" fill="#06e9e3"/>
    <path id="Path_942" data-name="Path 942" d="M293.853,55.271H273.721a7.613,7.613,0,1,0,0,15.226h20.132a7.613,7.613,0,1,0,0-15.226Zm0,10.685H273.721a3.073,3.073,0,1,1,0-6.145h20.132a3.073,3.073,0,1,1,0,6.145Z" transform="translate(-206.2 -33.533)" fill="#06e9e3"/>
    <path id="Path_943" data-name="Path 943" d="M155.021,55.271a7.613,7.613,0,1,0,7.622,7.613A7.623,7.623,0,0,0,155.021,55.271Zm0,10.685a3.073,3.073,0,1,1,3.082-3.073A3.078,3.078,0,0,1,155.021,65.956Z" transform="translate(-114.222 -33.533)" fill="#06e9e3"/>
    <path id="Path_944" data-name="Path 944" d="M139.658,222.228a2.27,2.27,0,0,0-2.736,1.68l-4.5,18.846a2.27,2.27,0,1,0,4.416,1.055l4.5-18.846A2.27,2.27,0,0,0,139.658,222.228Z" transform="translate(-102.56 -162.856)" fill="#06e9e3"/>
    <path id="Path_945" data-name="Path 945" d="M199.2,249.136a2.271,2.271,0,0,0,3.205-.185l6.366-7.146a3.15,3.15,0,0,0,.006-4.162l-6.373-7.154a2.27,2.27,0,1,0-3.391,3.02l5.533,6.211-5.533,6.211A2.27,2.27,0,0,0,199.2,249.136Z" transform="translate(-153.766 -168.718)" fill="#06e9e3"/>
    <path id="Path_946" data-name="Path 946" d="M67.415,230.305a2.27,2.27,0,0,0-3.205.185l-6.365,7.145a3.149,3.149,0,0,0-.007,4.163l6.373,7.154a2.27,2.27,0,0,0,3.391-3.02l-5.533-6.211,5.533-6.211A2.271,2.271,0,0,0,67.415,230.305Z" transform="translate(-44.211 -168.719)" fill="#06e9e3"/>
    <path id="Path_947" data-name="Path 947" d="M110.17,85.73h-.843a23.9,23.9,0,0,0-1.711-4.13l.6-.6a5.086,5.086,0,0,0,0-7.195l-1.172-1.171V24.276C107.05,17.5,102.272,12,96.4,12H10.652C4.778,12,0,17.5,0,24.276v63.45c0,6.771,4.778,12.28,10.652,12.28H23.971a2.27,2.27,0,0,0,0-4.54H10.652c-3.313,0-6.112-3.544-6.112-7.74V46.54H102.51V69.481a5.162,5.162,0,0,0-.787-.066h-.008A5.032,5.032,0,0,0,98.132,70.9l-.614.611a23.964,23.964,0,0,0-4.2-1.732v-.809a5.1,5.1,0,0,0-5.09-5.088H84.125a5.091,5.091,0,0,0-5.083,5.088v.864a24.1,24.1,0,0,0-4.1,1.717l-.588-.586a5.04,5.04,0,0,0-3.59-1.492h-.008a5.054,5.054,0,0,0-3.6,1.487l-2.9,2.9a5.086,5.086,0,0,0,0,7.187l.627.629a23.972,23.972,0,0,0-1.672,4.054h-.862a5.088,5.088,0,0,0-5.083,5.082v4.112a5.114,5.114,0,0,0,.029.541H44.084a2.27,2.27,0,1,0,0,4.54H63.218a23.833,23.833,0,0,0,1.7,4.087l-.613.611a5.1,5.1,0,0,0,0,7.185l2.9,2.9a5.04,5.04,0,0,0,3.59,1.492h.007a5.054,5.054,0,0,0,3.6-1.487l.608-.608a23.987,23.987,0,0,0,4.1,1.7v.879a5.091,5.091,0,0,0,5.083,5.088h4.114a5.091,5.091,0,0,0,5.083-5.088v-.873a23.926,23.926,0,0,0,4.12-1.706l.605.6a5.039,5.039,0,0,0,3.59,1.492h.008a5.056,5.056,0,0,0,3.6-1.489l2.9-2.9a5.086,5.086,0,0,0,0-7.195l-.606-.606a23.971,23.971,0,0,0,1.7-4.087h.858a5.091,5.091,0,0,0,5.09-5.082V90.811a5.091,5.091,0,0,0-5.089-5.081ZM4.54,42V24.276c0-4.2,2.8-7.74,6.112-7.74H96.4c3.313,0,6.112,3.544,6.112,7.74V42H4.54ZM110.72,94.924a.56.56,0,0,1-.55.541h-2.6a2.27,2.27,0,0,0-2.213,1.763,19.488,19.488,0,0,1-2.5,6.032,2.27,2.27,0,0,0,.317,2.814l1.837,1.836a.544.544,0,0,1,.158.387.526.526,0,0,1-.159.382l-2.9,2.906a.547.547,0,0,1-.388.158h0a.529.529,0,0,1-.385-.161l-1.844-1.836a2.271,2.271,0,0,0-2.811-.313,19.452,19.452,0,0,1-6.057,2.507,2.271,2.271,0,0,0-1.766,2.214v2.614a.56.56,0,0,1-.543.548H84.2a.56.56,0,0,1-.543-.548v-2.62a2.27,2.27,0,0,0-1.769-2.214,19.479,19.479,0,0,1-6.046-2.5,2.269,2.269,0,0,0-2.809.319L71.2,111.584a.547.547,0,0,1-.388.158h0a.527.527,0,0,1-.382-.158l-2.909-2.907a.559.559,0,0,1,0-.764l1.843-1.836a2.27,2.27,0,0,0,.317-2.821,19.349,19.349,0,0,1-2.507-6.027,2.27,2.27,0,0,0-2.213-1.763H62.347a.549.549,0,0,1-.543-.541V90.812a.55.55,0,0,1,.543-.541h2.6A2.271,2.271,0,0,0,67.164,88.5a19.475,19.475,0,0,1,2.474-6,2.27,2.27,0,0,0-.319-2.8l-1.857-1.863a.521.521,0,0,1-.153-.376.544.544,0,0,1,.158-.387l2.9-2.9a.547.547,0,0,1,.388-.158h0a.53.53,0,0,1,.385.161L72.973,76a2.27,2.27,0,0,0,2.818.309,19.584,19.584,0,0,1,6.038-2.531,2.27,2.27,0,0,0,1.753-2.21V68.97a.553.553,0,0,1,.543-.548h4.108a.556.556,0,0,1,.55.548v2.556a2.27,2.27,0,0,0,1.777,2.216,19.463,19.463,0,0,1,6.125,2.525,2.271,2.271,0,0,0,2.809-.315l1.851-1.844a.523.523,0,0,1,.377-.153h0a.546.546,0,0,1,.388.158l2.9,2.9a.544.544,0,0,1,.158.387.528.528,0,0,1-.16.383l-1.837,1.843a2.27,2.27,0,0,0-.312,2.814,19.431,19.431,0,0,1,2.513,6.064,2.27,2.27,0,0,0,2.214,1.766h2.583a.56.56,0,0,1,.55.541Z" transform="translate(0 0)" fill="#06e9e3"/>
    <path id="Path_948" data-name="Path 948" d="M335.433,309.652A13.864,13.864,0,1,0,349.3,323.52,13.886,13.886,0,0,0,335.433,309.652Zm0,23.188a9.324,9.324,0,1,1,9.327-9.321A9.338,9.338,0,0,1,335.433,332.84Z" transform="translate(-249.171 -230.649)" fill="#06e9e3"/>
    <path id="Path_949" data-name="Path 949" d="M143.487,382.778h-.045a2.27,2.27,0,0,0,0,4.54h.045a2.27,2.27,0,1,0,0-4.54Z" transform="translate(-109.392 -287.313)" fill="#06e9e3"/>
  </g>
</svg>
