<svg xmlns="http://www.w3.org/2000/svg" width="41.5" height="41.5"><path data-name="facebook (2)" d="M6.079 41.5h13.536V26.748h-4.863v-4.863h4.863v-6.079a6.086 6.086 0 016.079-6.079h6.079v4.863H26.91a2.434 2.434 0 00-2.432 2.432v4.863h7.076l-.811 4.863h-6.264V41.5h10.942a6.086 6.086 0 006.079-6.079V6.079A6.086 6.086 0 0035.421 0H6.079A6.086 6.086 0 000 6.079v29.342A6.086 6.086 0 006.079 41.5zM2.432 6.079a3.652 3.652 0 013.647-3.647h29.342a3.652 3.652 0 013.647 3.647v29.342a3.652 3.652 0 01-3.647 3.647H26.91V29.18h5.89l1.621-9.727H26.91v-2.432h7.295V7.295h-8.511a8.52 8.52 0 00-8.511 8.511v3.647H12.32v9.727h4.863v9.889H6.079a3.652 3.652 0 01-3.647-3.647zm0 0" fill="#454564"/></svg>