<svg xmlns="http://www.w3.org/2000/svg" width="27" height="28.5"><defs><filter id="a" x="0" y="0" width="27" height="28.5" filterUnits="userSpaceOnUse"><feOffset dy="3"/><feGaussianBlur stdDeviation=".5" result="blur"/><feFlood flood-opacity=".161"/><feComposite operator="in" in2="blur"/><feComposite in="SourceGraphic"/></filter></defs><g filter="url(#a)"><path data-name="fi-rr-copy" d="M16.5 20h-10a5.006 5.006 0 01-5-5V5a5.006 5.006 0 015-5h10a5.006 5.006 0 015 5v10a5.006 5.006 0 01-5 5zM6.5 2a3 3 0 00-3 3v10a3 3 0 003 3h10a3 3 0 003-3V5a3 3 0 00-3-3zm19 17V6a1 1 0 00-2 0v13a3 3 0 01-3 3h-13a1 1 0 000 2h13a5.006 5.006 0 005-5z" fill="#fff"/></g></svg>