<svg xmlns="http://www.w3.org/2000/svg" width="388.357" height="388.452" viewBox="0 0 388.357 388.452">
  <g id="u" transform="translate(0.001)">
    <path id="Path_975" data-name="Path 975" d="M888.576,313.833A205.879,205.879,0,0,1,537.09,459.463a47.037,47.037,0,1,1,66.52-66.521A111.885,111.885,0,1,0,761.839,234.713a47.04,47.04,0,1,1,66.525-66.525A205.328,205.328,0,0,1,888.576,313.833Z" transform="translate(-523.308 -154.41)" fill="#0c0427"/>
    <path id="Path_976" data-name="Path 976" d="M941.538,261.873A205.882,205.882,0,0,1,590.047,407.5a47.041,47.041,0,0,1,66.506-66.51,111.889,111.889,0,0,0,158.23-158.239,47.04,47.04,0,1,1,66.525-66.525A205.343,205.343,0,0,1,941.538,261.873Z" transform="translate(-553.182 -79.38)" fill="#110631"/>
    <ellipse id="Ellipse_312" data-name="Ellipse 312" cx="46.961" cy="46.961" rx="46.961" ry="46.961" transform="translate(247.899 23.041)" fill="#06e9e3"/>
    <ellipse id="Ellipse_313" data-name="Ellipse 313" cx="46.961" cy="46.961" rx="46.961" ry="46.961" transform="translate(23.03 247.915)" fill="#06e9e3"/>
  </g>
</svg>
