<svg xmlns="http://www.w3.org/2000/svg" width="41.5" height="41.5"><g fill="#454564"><path data-name="Path 44" d="M30.266 0H11.234A11.246 11.246 0 00.001 11.234v19.033A11.246 11.246 0 0011.234 41.5h19.033a11.246 11.246 0 0011.234-11.233V11.234A11.246 11.246 0 0030.266 0zm8.8 30.267a8.811 8.811 0 01-8.8 8.8H11.234a8.811 8.811 0 01-8.8-8.8V11.234a8.811 8.811 0 018.8-8.8h19.033a8.811 8.811 0 018.8 8.8zm0 0"/><path data-name="Path 45" d="M20.75 9.399A11.347 11.347 0 1032.099 20.75 11.36 11.36 0 0020.75 9.399zm0 20.262a8.914 8.914 0 118.914-8.914 8.925 8.925 0 01-8.914 8.918zm0 0"/><path data-name="Path 46" d="M32.369 5.373a3.353 3.353 0 103.353 3.353 3.357 3.357 0 00-3.353-3.353zm0 4.273a.92.92 0 11.92-.92.921.921 0 01-.92.92zm0 0"/></g></svg>