<svg xmlns="http://www.w3.org/2000/svg" width="41.5" height="41.5" viewBox="0 0 41.5 41.5">
  <g id="instagram" transform="translate(0.001)">
    <path id="Path_44" data-name="Path 44" d="M30.265,0H11.233A11.246,11.246,0,0,0,0,11.234V30.267A11.246,11.246,0,0,0,11.233,41.5H30.266A11.246,11.246,0,0,0,41.5,30.267V11.234A11.246,11.246,0,0,0,30.265,0Zm8.8,30.267a8.811,8.811,0,0,1-8.8,8.8H11.233a8.811,8.811,0,0,1-8.8-8.8V11.234a8.811,8.811,0,0,1,8.8-8.8H30.266a8.811,8.811,0,0,1,8.8,8.8Zm0,0" fill="#46395a"/>
    <path id="Path_45" data-name="Path 45" d="M127.351,116A11.347,11.347,0,1,0,138.7,127.351,11.36,11.36,0,0,0,127.351,116Zm0,20.262a8.914,8.914,0,1,1,8.914-8.914A8.925,8.925,0,0,1,127.351,136.266Zm0,0" transform="translate(-106.602 -106.601)" fill="#46395a"/>
    <path id="Path_46" data-name="Path 46" d="M361.33,66.285a3.353,3.353,0,1,0,3.353,3.353A3.357,3.357,0,0,0,361.33,66.285Zm0,4.273a.92.92,0,1,1,.92-.92A.921.921,0,0,1,361.33,70.558Zm0,0" transform="translate(-328.962 -60.912)" fill="#46395a"/>
  </g>
</svg>
