<svg id="Logo_Black" xmlns="http://www.w3.org/2000/svg" viewBox="0 0 1530.6 323.78">
  <title>Logo</title>
  <path fill="#454564" d="M1210.51,449.61c-10.12,3.44-25.55,13.38-39,33.88h0a33.88,33.88,0,0,0-33.88-33.88h-38.79V593.45l-.1,7.39c0-1.55,0-3.12.1-4.7V701.37a.21.21,0,0,0,.21.21h72.25a.21.21,0,0,0,.21-.21V566.26a44.25,44.25,0,0,1,47-44.11c23.58,1.48,41.36,22.23,41.36,45.86V701.37a.21.21,0,0,0,.21.21h72.25l.21-.21.19-136.27C1332.78,471,1278.1,426.64,1210.51,449.61Z" transform="translate(-196 -377.8)"/>
  <path fill="#454564" d="M1087.49,569.3a132.29,132.29,0,0,0-140.72-132C880.9,441.37,827.28,495,823.19,560.86a132.29,132.29,0,0,0,132,140.72c1,0,2,0,3-.06v.06h8.6a36,36,0,0,0,36-36V629.12h-36c-3.78,0-7.52-.21-11.62-.21a59.48,59.48,0,0,1-47.14-23.26h179.48ZM898.26,551.69a59.61,59.61,0,0,1,113.9,0Z" transform="translate(-196 -377.8)"/>
  <path fill="#454564" d="M328.28,509.69a59.61,59.61,0,1,1-59.61,59.61,59.68,59.68,0,0,1,59.61-59.61m0-72.67A132.28,132.28,0,1,0,460.57,569.3,132.28,132.28,0,0,0,328.28,437Z" transform="translate(-196 -377.8)"/>
  <path fill="#454564" d="M761.5,472.11,721,580.05l-48.92-130.3H642.2v-.34H612.36l-48.92,130.3-48.92-130.3H436.9l94.54,251.83h64L642.2,576.68V577L689,701.58h64l94.55-251.83H793.77A34.47,34.47,0,0,0,761.5,472.11Z" transform="translate(-196 -377.8)"/>
  <path fill="#454564" d="M1434.69,635.66a17.44,17.44,0,0,1-17.44-17.44V521.66a36.12,36.12,0,0,0,35.25-36.1V449.41h-35.25V414.14a36.34,36.34,0,0,0-36.34-36.34h-36.33V635.66a65.92,65.92,0,0,0,65.92,65.92h42.36V635.66Z" transform="translate(-196 -377.8)"/>
  <path fill="#454564" d="M1594.32,509.69a59.61,59.61,0,1,1-59.62,59.61,59.68,59.68,0,0,1,59.62-59.61m0-72.67A132.28,132.28,0,1,0,1726.6,569.3,132.28,132.28,0,0,0,1594.32,437Z" transform="translate(-196 -377.8)"/>
</svg>
