<svg xmlns="http://www.w3.org/2000/svg" width="334.739" height="108.433" viewBox="0 0 334.739 108.433">
  <g id="Group_5" data-name="Group 5" transform="translate(-170.6 -155.919)">
    <g id="Group_2" data-name="Group 2" transform="translate(170.6 155.92)">
      <path id="Path_1" data-name="Path 1" d="M378.257,304.347a14.186,14.186,0,0,0-2.854.128c-.192.93-.77,2.437-1.828,2.18a25.2,25.2,0,0,0-2.758-.9,12.748,12.748,0,0,0-5.9.77,13.113,13.113,0,0,0-4.265,2.854,13.651,13.651,0,0,0-4.553,9.043,1.973,1.973,0,0,0,.064.609,1.306,1.306,0,0,0,.385.449,5.563,5.563,0,0,0,3.431,1.251c2.052.064,4.425-1.251,6.092-2.341a52.95,52.95,0,0,0,5.227-4.425,18.893,18.893,0,0,1-.353,3.271,26.522,26.522,0,0,0-.032,3.912c0,.1.032.224.1.257a.351.351,0,0,0,.257,0,19.544,19.544,0,0,1,3.207-.8c1.058-.16.609-.609.577-1.571a24.472,24.472,0,0,1,2.6-11.255c.577-1.154,1.475-2.148,1.988-3.271A8.578,8.578,0,0,0,378.257,304.347Zm-8.818,8.305c-.705.673-1.443,1.283-2.213,1.892-1.443,1.09-3.816,3.3-5.676,2.437-.128-.064-.257-.128-.289-.257a.445.445,0,0,1,.064-.353c1.732-3.976,6.028-7.728,10.582-7.471a.492.492,0,0,1,.417.16c.128.192,0,.449-.16.609A29.73,29.73,0,0,1,369.439,312.652Z" transform="translate(-296.618 -256.735)" fill="#454564"/>
      <path id="Path_2" data-name="Path 2" d="M539.557,306.631c-1.7-.1-2.95-.064-4.072,1.315-.225.289-.513.994-.834,1.058-.513.1-1.892-.834-2.533-.93a12.749,12.749,0,0,0-5.9.77,13.114,13.114,0,0,0-4.265,2.854,13.651,13.651,0,0,0-4.553,9.043,1.971,1.971,0,0,0,.064.609,1.3,1.3,0,0,0,.385.449,5.563,5.563,0,0,0,3.431,1.251c2.052.064,4.425-1.251,6.093-2.341a19.822,19.822,0,0,0,2.437-1.892c.577-.513,1.283-1.475,2.084-1.635.449.9.16,2.052.385,3.014a4.776,4.776,0,0,0,.706,1.539c.545.9,1.507,1.892,2.693,1.6,1.09-.257.738-1.186.738-2.052a24.472,24.472,0,0,1,2.6-11.255c.577-1.154,1.475-2.148,1.988-3.271C540.519,306.7,540.038,306.663,539.557,306.631Zm-8.754,8.433a9.485,9.485,0,0,1-5.066,1.7,1.054,1.054,0,0,1-.705-.16c-.417-.321-.193-.994.128-1.411,1.154-1.6,3.143-2.4,4.97-3.142a3.844,3.844,0,0,1,1.667-.385,1.265,1.265,0,0,1,.8.321C533.4,312.723,531.413,314.551,530.8,315.064Z" transform="translate(-406.196 -258.282)" fill="#454564"/>
      <path id="Path_3" data-name="Path 3" d="M730.163,300.908a2.216,2.216,0,0,1-.321-.128c-.769-.224-2.084-.481-2.693.16-.449.481-.192,1.764-1.186,1.8-.321,0-1.058-.673-1.411-.8a5.883,5.883,0,0,0-1.475-.385,5.7,5.7,0,0,0-2.726.449,22.45,22.45,0,0,0-5.772,3.3,14.113,14.113,0,0,0-4.778,6.862,2.23,2.23,0,0,0-.032,1.443,1.758,1.758,0,0,0,.641.641c4.457,3.271,8.946.545,12.217-3.014a6.721,6.721,0,0,0-.834,4.682c.577,1.828,1.892.449,2.918.417.77-.032,2.886.834,2.758-.834a19.657,19.657,0,0,1,.641-6.83c.545-2.02,1.635-3.752,2.213-5.74C730.676,301.9,731.157,301.325,730.163,300.908Zm-9.107,7.183c-1.026,1.09-3.463,3.816-5.612,4.521.673-3.784,3.72-9.62,8.53-7.888C722.98,305.814,722.018,307.033,721.057,308.091Z" transform="translate(-536.807 -254.163)" fill="#454564"/>
      <path id="Path_4" data-name="Path 4" d="M905.677,301.537a11.242,11.242,0,0,0-3.72.289,4.751,4.751,0,0,1-.673,1.475c-1.571-.641-2.629-1.411-4.425-.9a17.292,17.292,0,0,0-4.265,1.828,17.9,17.9,0,0,0-6.381,6.477,3.972,3.972,0,0,0-.641,3.014c.417,1.283,1.635,1.635,2.694,2.181a4.434,4.434,0,0,0,3.207.449,9.476,9.476,0,0,0,3.4-1.6c.962-.673,2.694-1.8,3.207-2.854a6.723,6.723,0,0,0-.834,4.682c.289.962.9,1.09,1.8.93,1.058-.16,2.116-.353,3.142-.513a.6.6,0,0,0,.577-.577,29.144,29.144,0,0,0,.321-5.291c.064-.289.16-.577.224-.834.353-1.026.705-2.052,1.09-3.046a28.917,28.917,0,0,0,1.347-3.623C906,302.852,906.8,301.73,905.677,301.537Zm-8.177,7.92a21.877,21.877,0,0,1-6.638,3.752,10.464,10.464,0,0,1,8.529-7.888A6.841,6.841,0,0,1,897.5,309.458Z" transform="translate(-656.237 -254.792)" fill="#454564"/>
      <path id="Path_5" data-name="Path 5" d="M973.481,300.673a18.647,18.647,0,0,0-3.495.9c-1.219.449-1.379.834-1.828,2.02a15.533,15.533,0,0,1-3.624,5.932,8.942,8.942,0,0,1-3.527,2.469c-1.7.449-.577-1.956-.257-2.629.738-1.571,1.475-3.175,2.213-4.746a11.88,11.88,0,0,0,.9-2.309,1.329,1.329,0,0,0-.032-.994c-.449-.77-1.635-.256-2.341-.256a5.749,5.749,0,0,0-2.373.673.829.829,0,0,0-.353.224.7.7,0,0,0-.16.385,52.421,52.421,0,0,1-2.79,7.279c-.641,1.379-2.373,4.1-.705,5.387a5.244,5.244,0,0,0,5.387.385,12.457,12.457,0,0,0,2.854-1.764c.449-.353.9-.77,1.347-1.154.289-.257.8-1.058,1.219-.994a13.1,13.1,0,0,0-.577,4.169.709.709,0,0,0,.192.577.824.824,0,0,0,.385.16,6.374,6.374,0,0,0,4.008-.481c1.058-.609.77-2.309.705-3.335a9.921,9.921,0,0,1,.77-3.335,28.576,28.576,0,0,1,3.014-6.509,3.015,3.015,0,0,0,.481-1.026.864.864,0,0,0-.417-.962,1.154,1.154,0,0,0-.737-.032C973.641,300.641,973.577,300.673,973.481,300.673Z" transform="translate(-703.07 -254.248)" fill="#454564"/>
      <path id="Path_6" data-name="Path 6" d="M499.73,292.525a4.814,4.814,0,0,0-2.918-.224c-.449.128-1.667.449-1.924.962-.385.866.224,1.507.289,2.277a8.09,8.09,0,0,1-.8,2.982c-.77,2.052-1.507,4.136-2.148,6.253-.609,1.988-1.6,4.489-1.732,6.573a1.25,1.25,0,0,0,2.116,1.122c1.122-.93,1.251-2.982,1.764-4.3.866-2.213,1.956-4.329,3.014-6.445.8-1.539,1.571-3.11,2.245-4.714.449-1.058,1.6-3.11.738-4.2a1.078,1.078,0,0,0-.481-.289A.25.25,0,0,1,499.73,292.525Z" transform="translate(-387.917 -248.473)" fill="#454564"/>
      <path id="Path_7" data-name="Path 7" d="M528.556,222.841c-.032-.1-.032-.16-.064-.257-.673-1.924-3.142-.93-4.457-.481a12.733,12.733,0,0,0-2.854,1.283c-.224.16-.481.353-.481.641,0,.353.321.577.609.737a11.593,11.593,0,0,0,2.95.673,5.909,5.909,0,0,0,3.078-.289A1.894,1.894,0,0,0,528.556,222.841Z" transform="translate(-408.438 -200.433)" fill="#454564"/>
      <path id="Path_8" data-name="Path 8" d="M658.667,193.094c.064-.449.128-.866.16-1.315,0-.16-.224-.257-.321-.16a32.244,32.244,0,0,0-6.285,8.562c-1.8,3.944-2.822,8.209-4.682,12.153q-5.868,12.554-11.544,25.2c-3.559,7.92-6.99,15.9-10.389,23.921-3.527,8.337-7.92,16.963-9.748,25.909a.946.946,0,0,0,1.7.77c4.233-6.638,6.8-14.462,9.812-21.709,3.559-8.529,7.183-17.027,10.806-25.556q5.772-13.564,11.768-27.031C652.863,207.3,657.545,200.276,658.667,193.094Z" transform="translate(-473.071 -180.145)" fill="#454564"/>
      <path id="Path_9" data-name="Path 9" d="M792.57,207.206c2.277-5.323,5.291-10.87,6.7-16.482.609-2.5-1.187-4.137-3.463-4.329a.807.807,0,0,0-.257,1.571c2.95.9-2.95,11.544-3.688,13.243-1.7,3.816-3.4,7.632-5.066,11.448-1.86,4.233-3.72,8.433-5.579,12.666-1.828,4.137-4.233,8.369-5.195,12.762a1.384,1.384,0,0,0,2.5,1.09,37.9,37.9,0,0,0,3.655-7.087,27.251,27.251,0,0,1,9.01-5.836,12.111,12.111,0,0,1-2.181,6.06,7.833,7.833,0,0,1-3.848,3.207c-1.026.321-2.148.032-3.239.289a1.367,1.367,0,0,0-.994,1.6c.962,5.1,7.632,1.924,9.748-.321,3.174-3.367,5.451-8.978,2.918-13.275a1.311,1.311,0,0,0-1.732-.545,34.126,34.126,0,0,0-8.465,5.708c.577-1.475,1.122-2.95,1.732-4.361C787.632,218.878,790.1,213.042,792.57,207.206Z" transform="translate(-581.866 -176.622)" fill="#454564"/>
      <path id="Path_10" data-name="Path 10" d="M1037.887,308.415a24.486,24.486,0,0,0-2.661.545,5.515,5.515,0,0,0-1.571.609c-1.155.737-1.956,2.02-3.078,2.854a17.081,17.081,0,0,1-4.169,2.309c-1.09.385-3.72,1.379-4.521.032-.673-1.154,1.218-4.714,2.565-4.874a38.134,38.134,0,0,0,9.427-2.437,1.349,1.349,0,0,0,.8-.577,1.422,1.422,0,0,0,.1-.641,4.913,4.913,0,0,0-2.084-3.527c-2.533-1.828-6.638-2.309-9.2-.288a6.809,6.809,0,0,0-1.09,1.058,22.481,22.481,0,0,0-4.585,8.69,4.187,4.187,0,0,0-.225,1.411c.128,2.213,3.046,3.591,4.906,3.848a12.961,12.961,0,0,0,7.151-1.507,28.587,28.587,0,0,0,5.066-3.175,23.384,23.384,0,0,0,2.277-2.084,6.959,6.959,0,0,0,.994-1.186c.064-.128.321-1.122.353-1.122A1.672,1.672,0,0,0,1037.887,308.415Zm-8.818-4.008a2.628,2.628,0,0,1,1.571.032c1.058.353.256.93-.224,1.122-.866.385-1.732.738-2.629,1.09a6.466,6.466,0,0,1-2.02.513C1025.991,305.881,1027.979,304.7,1029.069,304.406Z" transform="translate(-745.993 -254.55)" fill="#454564"/>
      <path id="Path_11" data-name="Path 11" d="M448.875,304.928c-1.988,1.09-4.008,2.148-6,3.239a16.5,16.5,0,0,0-5,3.559,22.4,22.4,0,0,0-.9,6.8c.032.962.481,1.411-.609,1.571a18.764,18.764,0,0,0-3.207.8c-.1.032-.16.064-.256,0a.266.266,0,0,1-.1-.257,28.2,28.2,0,0,1,3.239-15.712,1.446,1.446,0,0,1,.321-.449,1.265,1.265,0,0,1,.481-.192,11.377,11.377,0,0,1,3.271-.481,10.452,10.452,0,0,1,1.443.16c-.513,1.122-1.443,2.148-1.988,3.271-.1.16-.16.353-.256.545a27.806,27.806,0,0,1,5.8-4.425,2.716,2.716,0,0,1,.9-.385,3.84,3.84,0,0,1,.866.032,9.735,9.735,0,0,1,2.629.866C449.74,304.319,449.259,304.7,448.875,304.928Z" transform="translate(-348.669 -255.809)" fill="#454564"/>
      <path id="Path_12" data-name="Path 12" d="M859.975,304.928c-1.988,1.09-4.008,2.148-6,3.239a16.507,16.507,0,0,0-5,3.559,22.407,22.407,0,0,0-.9,6.8c.032.962.481,1.411-.609,1.571a18.767,18.767,0,0,0-3.207.8c-.1.032-.16.064-.257,0a.266.266,0,0,1-.1-.257,28.2,28.2,0,0,1,3.239-15.712,1.445,1.445,0,0,1,.321-.449,1.265,1.265,0,0,1,.481-.192,11.376,11.376,0,0,1,3.271-.481,10.451,10.451,0,0,1,1.443.16c-.513,1.122-1.443,2.148-1.988,3.271-.1.16-.16.353-.257.545a27.811,27.811,0,0,1,5.8-4.425,2.716,2.716,0,0,1,.9-.385,3.839,3.839,0,0,1,.866.032,9.738,9.738,0,0,1,2.629.866C860.84,304.319,860.359,304.7,859.975,304.928Z" transform="translate(-627.947 -255.809)" fill="#454564"/>
      <path id="Path_13" data-name="Path 13" d="M240.824,171.561H240.5a2.606,2.606,0,0,0-.705.032,2.721,2.721,0,0,0-.705.289,21.657,21.657,0,0,0-4.169,2.822c-1.026.9-2.245,1.667-3.3,2.5-1.122.9-2.18,1.8-3.271,2.758-2.148,1.924-4.169,3.944-6.125,6.028a140.679,140.679,0,0,0-10.71,13.211c1.283-5.74,1.764-11.832,2.982-17.38,1.122-5.066,2.5-10.037,3.784-15.071.481-1.8.962-3.591,1.379-5.419a10.425,10.425,0,0,1,.673-2.148,6.64,6.64,0,0,0,.866-2.02,18.488,18.488,0,0,0-2.437-1.122,1.734,1.734,0,0,0-.9-.1,1.448,1.448,0,0,0-.545.353,51.768,51.768,0,0,0-7.664,9.075c-2.341,3.207-4.489,6.573-6.734,9.876-4.457,6.606-8.594,13.4-12.506,20.3-1.988,3.5-3.88,7.054-5.708,10.614-1.732,3.4-3.207,7.022-5.259,10.229a59.156,59.156,0,0,0-5.259,10.582c-1.379,3.5-3.11,7.5-3.591,11.255,1.283.513,4.137.353,5.034-.866a1.73,1.73,0,0,0,.289-.705c.705-2.886,1.956-5.612,2.854-8.4a71.153,71.153,0,0,1,3.527-8.594q5.195-11.351,11.287-22.35c3.527-6.381,7.343-12.666,11.287-18.855,3.559-5.612,7.92-11,11.351-16.706a196.416,196.416,0,0,0-5.131,19.143c-1.186,4.97-2.661,9.908-3.527,14.943a40.05,40.05,0,0,0-.705,7.568c0,.77-.224,2.6.257,3.239.609.8,2.084.1,2.822-.1.1-.032.192-.032.257-.1s.064-.128.1-.192c1.122-3.463,3.174-5.964,5.451-8.69,2.437-2.886,4.97-5.708,7.6-8.433,3.527-3.655,7.471-6.894,11.319-10.229a92.8,92.8,0,0,0-8.53,16.642,95.21,95.21,0,0,0-4.65,14.59c-.962,3.944-2.213,8.369-1.411,12.377.224,1.154,1.924.962,2.309.064,1.571-3.623,1.635-7.76,2.469-11.544a99.7,99.7,0,0,1,3.88-13.051,4.762,4.762,0,0,1,.545-1.411c.192-.481.385-.93.577-1.411.417-.962.834-1.892,1.283-2.822.9-1.86,1.828-3.688,2.822-5.515,1.411-2.6,2.886-5.163,4.329-7.728.353-.641.738-1.283,1.09-1.924a8.263,8.263,0,0,1,1.026-1.7,24.36,24.36,0,0,0,2.437-3.3c.032-.064.064-.1.1-.16.032-.257-.321-.385-.577-.385C241.786,171.593,241.3,171.561,240.824,171.561Z" transform="translate(-170.6 -155.92)" fill="#454564"/>
      <path id="Path_14" data-name="Path 14" d="M772.865,222.694c-33.829-.641-67.755-.449-101.584-.545-17.508-.032-35.016-.16-52.556-.289l-24.53-.192c-8.337-.064-17.283-.577-25.364.321-3.078.353-3.367,2.148-.16,2.5,7.087.77,14.558.449,21.837.385l24.53-.192q26.31-.192,52.588-.321c35.048-.1,70.16.128,105.176-.545C774.629,223.817,774.725,222.726,772.865,222.694Z" transform="translate(-439.477 -200.447)" fill="#454564"/>
      <path id="Path_15" data-name="Path 15" d="M342.281,329.322c-5.163,2.213-9.748,6.573-13.4,10.55-.481.513.289,1.315.77.8a59.358,59.358,0,0,1,5.868-5.483c2.309-1.892,4.97-3.3,7.375-5.1C343.339,329.739,342.762,329.13,342.281,329.322Z" transform="translate(-278.021 -273.694)" fill="#454564"/>
      <path id="Path_16" data-name="Path 16" d="M419.881,319c-5.163,2.213-9.748,6.574-13.4,10.55-.481.513.289,1.315.77.8a59.376,59.376,0,0,1,5.868-5.483c2.309-1.892,4.97-3.3,7.375-5.1C420.939,319.418,420.362,318.777,419.881,319Z" transform="translate(-330.738 -266.676)" fill="#454564"/>
      <path id="Path_17" data-name="Path 17" d="M509.781,320.725c-5.163,2.212-9.748,6.573-13.4,10.55-.481.513.289,1.315.77.8a59.366,59.366,0,0,1,5.868-5.483c2.309-1.892,4.97-3.3,7.375-5.1C510.839,321.174,510.262,320.533,509.781,320.725Z" transform="translate(-391.811 -267.855)" fill="#454564"/>
      <path id="Path_18" data-name="Path 18" d="M767.181,314.2c-5.163,2.213-9.748,6.574-13.4,10.55-.481.513.289,1.315.77.8a59.392,59.392,0,0,1,5.868-5.483c2.309-1.892,4.97-3.3,7.375-5.1C768.239,314.618,767.694,313.977,767.181,314.2Z" transform="translate(-566.674 -263.415)" fill="#454564"/>
      <path id="Path_19" data-name="Path 19" d="M828.781,313.1c-5.163,2.213-9.748,6.574-13.4,10.55-.481.513.289,1.315.77.8a59.36,59.36,0,0,1,5.868-5.483c2.309-1.892,4.97-3.3,7.375-5.1C829.871,313.518,829.294,312.877,828.781,313.1Z" transform="translate(-608.521 -262.668)" fill="#454564"/>
      <path id="Path_20" data-name="Path 20" d="M948.481,313.1c-5.163,2.213-9.748,6.574-13.4,10.55-.481.513.289,1.315.77.8a59.335,59.335,0,0,1,5.868-5.483c2.309-1.892,4.97-3.3,7.375-5.1C949.539,313.518,948.994,312.877,948.481,313.1Z" transform="translate(-689.838 -262.668)" fill="#454564"/>
      <path id="Path_21" data-name="Path 21" d="M1013.981,312c-5.163,2.213-9.748,6.573-13.4,10.55-.481.513.289,1.315.77.8a59.361,59.361,0,0,1,5.868-5.483c2.309-1.892,4.97-3.3,7.375-5.1C1015.039,312.418,1014.462,311.777,1013.981,312Z" transform="translate(-734.335 -261.921)" fill="#454564"/>
      <g id="Group_1" data-name="Group 1" transform="translate(94.991 47.871)">
        <path id="Path_22" data-name="Path 22" d="M471.22,305.271a4.466,4.466,0,0,0-1.6.705,6.7,6.7,0,0,0-2.18,1.667,6.286,6.286,0,0,0-.577,2.982,1.839,1.839,0,0,0,.256,1.379,1.237,1.237,0,0,0,1.09.353,3.265,3.265,0,0,0,1.09-.449,9.46,9.46,0,0,0,3.014-2.95c.609-.994,1.122-2.565.224-3.527-.064-.064-.1-.128-.16-.16A2.8,2.8,0,0,0,471.22,305.271Z" transform="translate(-466.84 -305.211)" fill="#454564"/>
        <path id="Path_23" data-name="Path 23" d="M480.364,305.8H480.3v.032c.032-.032.032-.032.064-.032Z" transform="translate(-475.984 -305.611)" fill="#454564"/>
      </g>
    </g>
    <g id="Group_3" data-name="Group 3" transform="translate(338.656 239.028)">
      <path id="Path_24" data-name="Path 24" d="M702.043,423.124a3.081,3.081,0,0,0,1.507.385l-.128.962a3.611,3.611,0,0,1-2.213-.8,4.44,4.44,0,1,1-2.052-8.369,4.468,4.468,0,0,1,4.457,4.457A4.381,4.381,0,0,1,702.043,423.124Zm-2.886.064a3.39,3.39,0,0,0,1.283-.257c-.834-.93-1.411-1.988-2.565-2.02l.1-.866c1.667.064,2.245,1.443,3.239,2.437a3.432,3.432,0,0,0,1.411-2.79,3.463,3.463,0,1,0-3.463,3.5Z" transform="translate(-694.7 -415.236)" fill="#454564"/>
      <path id="Path_25" data-name="Path 25" d="M731.9,420.891V415.6h.994v5.291a2.229,2.229,0,1,0,4.425,0V415.6h.994v5.291a3.218,3.218,0,1,1-6.413,0Z" transform="translate(-719.971 -415.44)" fill="#454564"/>
      <path id="Path_26" data-name="Path 26" d="M763.594,416.494v2.726h3.559v.962h-3.559V423.2h4.1v.962h-5.1V415.5h5.1v.962h-4.1Z" transform="translate(-740.827 -415.372)" fill="#454564"/>
      <path id="Path_27" data-name="Path 27" d="M789.694,416.494v2.726h3.559v.962h-3.559V423.2h4.1v.962h-5.1V415.5h5.1v.962h-4.1Z" transform="translate(-758.558 -415.372)" fill="#454564"/>
      <path id="Path_28" data-name="Path 28" d="M821.758,415.26v8.786h-.064l-5.932-6.606v6.477H814.8V415.1h.064l5.932,6.573V415.2h.962Z" transform="translate(-776.289 -415.1)" fill="#454564"/>
      <path id="Path_29" data-name="Path 29" d="M861.5,419.657a4.457,4.457,0,1,1,4.457,4.425A4.468,4.468,0,0,1,861.5,419.657Zm7.92,0a3.463,3.463,0,1,0-3.463,3.463A3.449,3.449,0,0,0,869.42,419.657Z" transform="translate(-808.014 -415.168)" fill="#454564"/>
      <path id="Path_30" data-name="Path 30" d="M899.962,416.494v2.886h3.559v.962h-3.559v3.848H899V415.5h5.1v.962h-4.136Z" transform="translate(-833.49 -415.372)" fill="#454564"/>
      <path id="Path_31" data-name="Path 31" d="M943.3,416.562h-2.5v7.7h-.962v-7.7H937.3V415.6h6Z" transform="translate(-859.508 -415.44)" fill="#454564"/>
      <path id="Path_32" data-name="Path 32" d="M971.417,415.6v8.658h-.962V420.41h-4.393v3.848H965.1V415.6h.962v3.848h4.393V415.6Z" transform="translate(-878.394 -415.44)" fill="#454564"/>
      <path id="Path_33" data-name="Path 33" d="M996.794,416.494v2.726h3.559v.962h-3.559V423.2h4.1v.962h-5.1V415.5h5.1v.962h-4.1Z" transform="translate(-899.25 -415.372)" fill="#454564"/>
      <path id="Path_34" data-name="Path 34" d="M1035.4,423.809l.513-.866a2.436,2.436,0,0,0,1.443.481h.032a2.525,2.525,0,0,0,2.5-2.5l-.032-5.323h.962l.032,5.323a3.449,3.449,0,0,1-3.463,3.463h-.064A3.391,3.391,0,0,1,1035.4,423.809Z" transform="translate(-926.152 -415.44)" fill="#454564"/>
      <path id="Path_35" data-name="Path 35" d="M1062.9,420.891V415.6h.994v5.291a2.229,2.229,0,1,0,4.425,0V415.6h.994v5.291a3.218,3.218,0,1,1-6.413,0Z" transform="translate(-944.834 -415.44)" fill="#454564"/>
      <path id="Path_36" data-name="Path 36" d="M1100.658,415.26v8.786h-.064l-5.932-6.606v6.477h-.962V415.1h.064l5.932,6.573V415.2h.962Z" transform="translate(-965.758 -415.1)" fill="#454564"/>
      <path id="Path_37" data-name="Path 37" d="M1133.593,419.942a3.986,3.986,0,0,1-4.1,4.072,4.457,4.457,0,1,1-.032-8.914,4.864,4.864,0,0,1,3.143,1.315l-.545.8a3.971,3.971,0,0,0-2.6-1.122,3.463,3.463,0,1,0,.064,6.926,2.789,2.789,0,0,0,3.014-2.661v-.16h-3.11v-.866h4.1A3.24,3.24,0,0,1,1133.593,419.942Z" transform="translate(-987.021 -415.1)" fill="#454564"/>
      <path id="Path_38" data-name="Path 38" d="M1166.627,423.3v.962H1161.4V415.6h.962v7.7Z" transform="translate(-1011.749 -415.44)" fill="#454564"/>
      <path id="Path_39" data-name="Path 39" d="M1187.694,416.494v2.726h3.56v.962h-3.56V423.2h4.1v.962h-5.1V415.5h5.1v.962h-4.1Z" transform="translate(-1028.936 -415.372)" fill="#454564"/>
    </g>
  </g>
</svg>
