<svg xmlns="http://www.w3.org/2000/svg" width="48.461" height="41" viewBox="0 0 48.461 41">
  <path id="telegram" d="M47.712,1.122A3.146,3.146,0,0,0,45.215,0a4.9,4.9,0,0,0-1.743.347L2.452,16.006C.275,16.836-.018,18.083,0,18.752s.382,1.9,2.6,2.6l.04.012L11.152,23.8l4.6,13.158A3.972,3.972,0,0,0,19.43,39.87a4.35,4.35,0,0,0,2.942-1.253l5.263-4.846,7.634,6.147,0,0,.072.058.02.016A4.407,4.407,0,0,0,38.043,41h0a3.761,3.761,0,0,0,3.585-3.333L48.35,4.479a3.964,3.964,0,0,0-.637-3.357ZM14,23.341l16.416-8.386L20.193,25.816a1.417,1.417,0,0,0-.345.633l-1.971,7.984Zm6.449,13.188c-.068.062-.136.118-.2.17l1.829-7.406L25.4,31.97ZM45.567,3.915,38.845,37.1c-.065.318-.271,1.057-.8,1.057a1.655,1.655,0,0,1-.93-.4l-8.65-6.965,0,0-5.147-4.145L38.094,10.938A1.42,1.42,0,0,0,36.414,8.7L12.1,21.121,3.477,18.654,44.486,3a2.082,2.082,0,0,1,.73-.16c.087,0,.241.01.3.081a1.354,1.354,0,0,1,.053.995Zm0,0" transform="translate(0)" fill="#46395a"/>
</svg>
