<svg xmlns="http://www.w3.org/2000/svg" width="48.461" height="41"><path d="M47.712 1.122A3.146 3.146 0 0045.215 0a4.9 4.9 0 00-1.743.347L2.452 16.006c-2.177.83-2.47 2.077-2.452 2.746s.382 1.9 2.6 2.6l.04.012 8.512 2.436 4.6 13.158a3.972 3.972 0 003.678 2.912 4.35 4.35 0 002.942-1.253l5.263-4.846 7.634 6.147.072.058.02.016A4.407 4.407 0 0038.043 41a3.761 3.761 0 003.585-3.333L48.35 4.479a3.964 3.964 0 00-.637-3.357zM14 23.341l16.416-8.386-10.223 10.861a1.417 1.417 0 00-.345.633l-1.971 7.984zm6.449 13.188a4.565 4.565 0 01-.2.17l1.829-7.406L25.4 31.97zM45.567 3.915L38.845 37.1c-.065.318-.271 1.057-.8 1.057a1.655 1.655 0 01-.93-.4l-8.65-6.965-5.147-4.145 14.776-15.709a1.42 1.42 0 00-1.68-2.238L12.1 21.121l-8.623-2.467L44.486 3a2.082 2.082 0 01.73-.16c.087 0 .241.01.3.081a1.354 1.354 0 01.053.995zm0 0" fill="#454564"/></svg>