<svg id="vector" xmlns="http://www.w3.org/2000/svg" width="108.965" height="108.965" viewBox="0 0 108.965 108.965">
  <g id="Group_603" data-name="Group 603">
    <g id="Group_602" data-name="Group 602">
      <path id="Path_939" data-name="Path 939" d="M105.773,0H93a3.192,3.192,0,0,0-3.192,3.192V6.385h-26.3a9.575,9.575,0,0,0-18.056,0h-26.3V3.192A3.192,3.192,0,0,0,15.962,0H3.192A3.192,3.192,0,0,0,0,3.192V15.962a3.192,3.192,0,0,0,3.192,3.192H15.962a3.192,3.192,0,0,0,3.192-3.192V12.727H32.429a41.94,41.94,0,0,0-19.36,32.7,9.573,9.573,0,1,0,6.4.063A35.645,35.645,0,0,1,45.905,13.83a9.572,9.572,0,0,0,17.155,0A35.645,35.645,0,0,1,89.5,45.489a9.581,9.581,0,1,0,6.4-.064,41.866,41.866,0,0,0-19.36-32.656H89.811v3.192A3.192,3.192,0,0,0,93,19.154h12.769a3.192,3.192,0,0,0,3.192-3.192V3.192A3.192,3.192,0,0,0,105.773,0Zm-93,12.769H6.385V6.385h6.385Zm3.405,44.906a3.192,3.192,0,1,1,3.192-3.192A3.2,3.2,0,0,1,16.175,57.675ZM54.483,12.769a3.192,3.192,0,1,1,3.192-3.192A3.2,3.2,0,0,1,54.483,12.769ZM92.791,51.29A3.192,3.192,0,1,1,89.6,54.483,3.2,3.2,0,0,1,92.791,51.29Zm9.79-38.521H96.2V6.385h6.385Z" fill="#06e9e3"/>
    </g>
  </g>
  <g id="Group_605" data-name="Group 605" transform="translate(25.752 25.754)">
    <g id="Group_604" data-name="Group 604">
      <path id="Path_940" data-name="Path 940" d="M177.926,160.738,152.387,122.43l0,0-.028-.04q-.066-.1-.138-.185a3.192,3.192,0,0,0-5.111.185l-.029.04,0,0-25.539,38.308a3.192,3.192,0,0,0,.4,4.028,40.445,40.445,0,0,1,11.527,23.6,16.447,16.447,0,0,0-1.428,1.294,16.181,16.181,0,0,0-4.65,11.367,3.192,3.192,0,0,0,3.192,3.192h38.308a3.192,3.192,0,0,0,3.192-3.192,16.182,16.182,0,0,0-4.65-11.367A16.451,16.451,0,0,0,166,188.368a40.439,40.439,0,0,1,11.527-23.6A3.192,3.192,0,0,0,177.926,160.738Zm-28.195-1.421a3.192,3.192,0,1,1-3.192,3.192A3.2,3.2,0,0,1,149.731,159.316Zm-15.417,38.521a9.751,9.751,0,0,1,9.033-6.6h12.769a9.752,9.752,0,0,1,9.033,6.6ZM160,185.341a15.686,15.686,0,0,0-3.883-.486H143.346a15.676,15.676,0,0,0-3.883.486,46.845,46.845,0,0,0-11.205-23.176l18.28-27.421v18.737a9.577,9.577,0,1,0,6.385,0V134.744L171.2,162.165A46.838,46.838,0,0,0,160,185.341Z" transform="translate(-121 -121.01)" fill="#06e9e3"/>
    </g>
  </g>
</svg>
