<svg xmlns="http://www.w3.org/2000/svg" width="37.516" height="41"><path data-name="Path 40" d="M37.516 14.47A14.509 14.509 0 0023.045 0h-8.574A14.509 14.509 0 00.001 14.47v6.74a14.342 14.342 0 002.631 8.3 14.52 14.52 0 005.941 4.91v3.871c0 2 1.121 2.712 2.08 2.712a2.932 2.932 0 002.039-1.006l4.309-4.316h6.041A14.509 14.509 0 0037.516 21.21zM23.045 33.278h-6.538a1.2 1.2 0 00-.849.352l-4.665 4.665-.018.018v-4.7a1.2 1.2 0 00-.773-1.122A12.157 12.157 0 012.401 21.21v-6.74A12.106 12.106 0 0114.471 2.4h8.574a12.107 12.107 0 0112.068 12.07v6.74a12.082 12.082 0 01-12.068 12.068zm0 0" fill="#46395a"/><path data-name="Path 41" d="M21.952 19.646a1.2 1.2 0 00-1.7 0l-.97.97-3.76-3.76.97-.97a1.2 1.2 0 000-1.7l-4.549-4.549a1.2 1.2 0 00-1.7 0l-3.184 3.184a4.423 4.423 0 000 6.247l10.007 10.008a4.428 4.428 0 006.248 0l3.184-3.184a1.2 1.2 0 000-1.7zm-.334 7.733a2.025 2.025 0 01-2.85 0L8.761 17.371a2.017 2.017 0 010-2.85l2.335-2.335 2.85 2.85-.97.97a1.2 1.2 0 000 1.7l5.458 5.458a1.2 1.2 0 001.7 0l.97-.97 2.85 2.85zm0 0" fill="#46395a"/><path data-name="Path 42" d="M19.049 5.313a1.2 1.2 0 000 2.4 10.292 10.292 0 0110.292 10.292 1.2 1.2 0 002.4 0A12.694 12.694 0 0019.047 5.311zm0 0" fill="#46395a"/><path data-name="Path 43" d="M24.195 18.008a1.2 1.2 0 002.4 0 7.556 7.556 0 00-7.548-7.548 1.2 1.2 0 000 2.4 5.151 5.151 0 015.148 5.148zm0 0" fill="#454564"/></svg>