<svg id="viber" xmlns="http://www.w3.org/2000/svg" width="37.516" height="41" viewBox="0 0 37.516 41">
  <path id="Path_40" data-name="Path 40" d="M37.515,14.47A14.509,14.509,0,0,0,23.044,0H14.47A14.509,14.509,0,0,0,0,14.47v6.74a14.342,14.342,0,0,0,2.631,8.3,14.52,14.52,0,0,0,5.941,4.91v3.871c0,2,1.121,2.712,2.08,2.712a2.932,2.932,0,0,0,2.039-1.006L17,35.681h6.041A14.509,14.509,0,0,0,37.515,21.21ZM23.044,33.278H16.506a1.2,1.2,0,0,0-.849.352l-4.665,4.665-.018.018v-4.7a1.2,1.2,0,0,0-.773-1.122A12.157,12.157,0,0,1,2.4,21.21V14.47A12.106,12.106,0,0,1,14.47,2.4h8.574A12.107,12.107,0,0,1,35.112,14.47v6.74A12.082,12.082,0,0,1,23.044,33.278Zm0,0" transform="translate(0.001 0)" fill="#46395a"/>
  <path id="Path_41" data-name="Path 41" d="M88.242,126.332a1.2,1.2,0,0,0-1.7,0l-.97.97-3.76-3.76.97-.97a1.2,1.2,0,0,0,0-1.7l-4.549-4.549a1.2,1.2,0,0,0-1.7,0l-3.184,3.184a4.423,4.423,0,0,0,0,6.247l10.007,10.008a4.428,4.428,0,0,0,6.248,0l3.184-3.184a1.2,1.2,0,0,0,0-1.7Zm-.334,7.733a2.025,2.025,0,0,1-2.85,0L75.051,124.057a2.017,2.017,0,0,1,0-2.85l2.335-2.335,2.85,2.85-.97.97a1.2,1.2,0,0,0,0,1.7l5.458,5.458a1.2,1.2,0,0,0,1.7,0l.97-.97,2.85,2.85Zm0,0" transform="translate(-66.29 -106.686)" fill="#46395a"/>
  <path id="Path_42" data-name="Path 42" d="M224.084,66.355a1.2,1.2,0,0,0,0,2.4,10.292,10.292,0,0,1,10.292,10.292,1.2,1.2,0,0,0,2.4,0,12.694,12.694,0,0,0-12.694-12.694Zm0,0" transform="translate(-205.035 -61.042)" fill="#46395a"/>
  <path id="Path_43" data-name="Path 43" d="M229.23,138.169a1.2,1.2,0,0,0,2.4,0,7.556,7.556,0,0,0-7.548-7.548,1.2,1.2,0,0,0,0,2.4A5.151,5.151,0,0,1,229.23,138.169Zm0,0" transform="translate(-205.035 -120.161)" fill="#46395a"/>
</svg>
