<svg xmlns="http://www.w3.org/2000/svg" width="113.51" height="108.965" viewBox="0 0 113.51 108.965">
  <g id="web-design" transform="translate(0 -10.249)">
    <g id="Group_607" data-name="Group 607" transform="translate(0 10.249)">
      <g id="Group_606" data-name="Group 606" transform="translate(0 0)">
        <path id="Path_959" data-name="Path 959" d="M111.293,10.249H2.217A2.217,2.217,0,0,0,0,12.466v22.8a2.217,2.217,0,0,0,2.217,2.217H111.293a2.217,2.217,0,0,0,2.217-2.217v-22.8A2.217,2.217,0,0,0,111.293,10.249Zm-2.217,22.8H4.434V14.683H109.076Z" transform="translate(0 -10.249)" fill="#06e9e3"/>
      </g>
    </g>
    <g id="Group_609" data-name="Group 609" transform="translate(88.849 15.937)">
      <g id="Group_608" data-name="Group 608">
        <path id="Path_960" data-name="Path 960" d="M415.983,47.986l-1.811-1.811a7.078,7.078,0,1,0-3.135,3.135l1.811,1.811a2.217,2.217,0,0,0,3.135-3.135Zm-6.263-3.128a2.648,2.648,0,1,1,.776-1.873A2.631,2.631,0,0,1,409.721,44.858Z" transform="translate(-400.765 -35.906)" fill="#06e9e3"/>
      </g>
    </g>
    <g id="Group_611" data-name="Group 611" transform="translate(75.054 25.665)">
      <g id="Group_610" data-name="Group 610">
        <path id="Path_961" data-name="Path 961" d="M342.931,81.57a2.226,2.226,0,0,0-.126-.415,2.262,2.262,0,0,0-.2-.384,2.231,2.231,0,0,0-.275-.337,2.123,2.123,0,0,0-.337-.275,2.188,2.188,0,0,0-.384-.2,2.238,2.238,0,0,0-.415-.126,2.194,2.194,0,0,0-.867,0,2.267,2.267,0,0,0-1.135.605,2.362,2.362,0,0,0-.275.337,2.27,2.27,0,0,0-.2.384,2.231,2.231,0,0,0-.126.415,2.251,2.251,0,0,0,0,.867,2.229,2.229,0,0,0,.126.414,2.338,2.338,0,0,0,.2.384,2.375,2.375,0,0,0,.275.337,2.291,2.291,0,0,0,.721.479,2.345,2.345,0,0,0,.415.126,2.208,2.208,0,0,0,1.281-.126,2.27,2.27,0,0,0,.384-.2,2.112,2.112,0,0,0,.337-.275,2.237,2.237,0,0,0,.65-1.567A2.2,2.2,0,0,0,342.931,81.57Z" transform="translate(-338.541 -79.786)" fill="#06e9e3"/>
      </g>
    </g>
    <g id="Group_613" data-name="Group 613" transform="translate(20.572 25.665)">
      <g id="Group_612" data-name="Group 612">
        <path id="Path_962" data-name="Path 962" d="M141.087,79.786H95.011a2.217,2.217,0,1,0,0,4.434h46.076a2.217,2.217,0,0,0,0-4.434Z" transform="translate(-92.794 -79.786)" fill="#06e9e3"/>
      </g>
    </g>
    <g id="Group_615" data-name="Group 615" transform="translate(0.262 40.647)">
      <g id="Group_614" data-name="Group 614" transform="translate(0 0)">
        <path id="Path_963" data-name="Path 963" d="M70.714,147.364H3.4a2.217,2.217,0,0,0-2.217,2.217V193.3A2.217,2.217,0,0,0,3.4,195.517H70.714a2.217,2.217,0,0,0,2.217-2.217V149.581A2.217,2.217,0,0,0,70.714,147.364ZM27.923,191.082H9.105l12.673-14.673,9.178,10.628Zm5.542,0,4.134-5.512h10.75a2.217,2.217,0,0,0,0-4.434H40.925l1.555-2.074H56.4l9.015,12.019Zm12.34-16.453,3.635-4.846,3.635,4.846ZM68.5,187.8,51.214,164.758a2.217,2.217,0,0,0-3.547,0L33.68,183.407,23.457,171.568a2.217,2.217,0,0,0-3.356,0L5.615,188.34V151.8H68.5Z" transform="translate(-1.181 -147.364)" fill="#06e9e3"/>
      </g>
    </g>
    <g id="Group_617" data-name="Group 617" transform="translate(22.679 47.627)">
      <g id="Group_616" data-name="Group 616" transform="translate(0 0)">
        <path id="Path_964" data-name="Path 964" d="M110.133,178.846a7.838,7.838,0,1,0,7.838,7.838A7.846,7.846,0,0,0,110.133,178.846Zm0,11.242a3.4,3.4,0,1,1,3.4-3.4A3.407,3.407,0,0,1,110.133,190.088Z" transform="translate(-102.295 -178.846)" fill="#06e9e3"/>
      </g>
    </g>
    <g id="Group_619" data-name="Group 619" transform="translate(75.003 40.647)">
      <g id="Group_618" data-name="Group 618" transform="translate(0 0)">
        <path id="Path_965" data-name="Path 965" d="M374.6,147.364H340.529a2.217,2.217,0,0,0-2.217,2.217V193.3a2.217,2.217,0,0,0,2.217,2.217H374.6a2.217,2.217,0,0,0,2.217-2.217V149.581A2.217,2.217,0,0,0,374.6,147.364Zm-2.217,43.719H342.746V151.8h29.639Z" transform="translate(-338.312 -147.364)" fill="#06e9e3"/>
      </g>
    </g>
    <g id="Group_621" data-name="Group 621" transform="translate(82.382 48.733)">
      <g id="Group_620" data-name="Group 620" transform="translate(0 0)">
        <path id="Path_966" data-name="Path 966" d="M393.127,183.835H373.812a2.217,2.217,0,1,0,0,4.434h19.315a2.217,2.217,0,1,0,0-4.434Z" transform="translate(-371.595 -183.835)" fill="#06e9e3"/>
      </g>
    </g>
    <g id="Group_623" data-name="Group 623" transform="translate(82.382 57.63)">
      <g id="Group_622" data-name="Group 622">
        <path id="Path_967" data-name="Path 967" d="M393.127,223.969H373.812a2.217,2.217,0,1,0,0,4.434h19.315a2.217,2.217,0,1,0,0-4.434Z" transform="translate(-371.595 -223.969)" fill="#06e9e3"/>
      </g>
    </g>
    <g id="Group_625" data-name="Group 625" transform="translate(82.382 66.528)">
      <g id="Group_624" data-name="Group 624">
        <path id="Path_968" data-name="Path 968" d="M393.127,264.1H373.812a2.217,2.217,0,0,0,0,4.434h19.315a2.217,2.217,0,1,0,0-4.434Z" transform="translate(-371.595 -264.103)" fill="#06e9e3"/>
      </g>
    </g>
    <g id="Group_627" data-name="Group 627" transform="translate(82.381 75.426)">
      <g id="Group_626" data-name="Group 626">
        <path id="Path_969" data-name="Path 969" d="M375.983,306.021a2.235,2.235,0,0,0-.126-.415,2.344,2.344,0,0,0-.2-.383,2.214,2.214,0,0,0-2.691-.816,2.358,2.358,0,0,0-.384.2,2.155,2.155,0,0,0-.612.612,2.359,2.359,0,0,0-.2.383,2.232,2.232,0,0,0-.126.415,2.139,2.139,0,0,0,0,.867,2.234,2.234,0,0,0,.126.415,2.334,2.334,0,0,0,.2.383,2.155,2.155,0,0,0,.612.612,2.351,2.351,0,0,0,.384.2,2.234,2.234,0,0,0,.415.126,2.2,2.2,0,0,0,2-.605,2.185,2.185,0,0,0,.481-.721,2.237,2.237,0,0,0,.126-.415,2.25,2.25,0,0,0,0-.867Z" transform="translate(-371.591 -304.238)" fill="#06e9e3"/>
      </g>
    </g>
    <g id="Group_629" data-name="Group 629" transform="translate(90.786 75.425)">
      <g id="Group_628" data-name="Group 628">
        <path id="Path_970" data-name="Path 970" d="M422.633,304.236H411.722a2.217,2.217,0,1,0,0,4.434h10.911a2.217,2.217,0,0,0,0-4.434Z" transform="translate(-409.505 -304.236)" fill="#06e9e3"/>
      </g>
    </g>
    <g id="Group_631" data-name="Group 631" transform="translate(0.262 91.945)">
      <g id="Group_630" data-name="Group 630">
        <path id="Path_971" data-name="Path 971" d="M37.471,378.751H3.4a2.217,2.217,0,0,0-2.217,2.217V403.8A2.217,2.217,0,0,0,3.4,406.02H37.471a2.217,2.217,0,0,0,2.217-2.217V380.968A2.217,2.217,0,0,0,37.471,378.751Zm-2.217,22.835H5.615v-18.4H35.254Z" transform="translate(-1.181 -378.751)" fill="#06e9e3"/>
      </g>
    </g>
    <g id="Group_633" data-name="Group 633" transform="translate(42.062 91.945)">
      <g id="Group_632" data-name="Group 632">
        <path id="Path_972" data-name="Path 972" d="M258.958,378.751H191.945a2.217,2.217,0,0,0-2.217,2.217V403.8a2.217,2.217,0,0,0,2.217,2.217h67.014a2.217,2.217,0,0,0,2.217-2.217V380.968A2.217,2.217,0,0,0,258.958,378.751Zm-2.217,22.835h-62.58v-18.4h62.58Z" transform="translate(-189.728 -378.751)" fill="#06e9e3"/>
      </g>
    </g>
    <g id="Group_635" data-name="Group 635" transform="translate(52.206 103.363)">
      <g id="Group_634" data-name="Group 634">
        <path id="Path_973" data-name="Path 973" d="M239.871,432.039a2.247,2.247,0,0,0-.126-.415,2.185,2.185,0,0,0-.2-.383,2.151,2.151,0,0,0-.612-.612,2.2,2.2,0,0,0-.384-.2,2.24,2.24,0,0,0-.415-.129,2.278,2.278,0,0,0-.867,0,2.35,2.35,0,0,0-.415.129,2.261,2.261,0,0,0-.381.2,2.122,2.122,0,0,0-.337.275,2.254,2.254,0,0,0-.277.337,2.187,2.187,0,0,0-.2.383,2.249,2.249,0,0,0-.126.415,2.238,2.238,0,0,0,0,.865,2.322,2.322,0,0,0,.126.417,2.222,2.222,0,0,0,2.048,1.368,2.2,2.2,0,0,0,.432-.042,2.24,2.24,0,0,0,.415-.129,2.049,2.049,0,0,0,.384-.2,2.1,2.1,0,0,0,.337-.275,2.121,2.121,0,0,0,.275-.337,2.249,2.249,0,0,0,.2-.381,2.316,2.316,0,0,0,.126-.417,2.131,2.131,0,0,0,0-.865Z" transform="translate(-235.481 -430.255)" fill="#06e9e3"/>
      </g>
    </g>
    <g id="Group_637" data-name="Group 637" transform="translate(60.61 103.363)">
      <g id="Group_636" data-name="Group 636">
        <path id="Path_974" data-name="Path 974" d="M312.836,430.252h-37.23a2.217,2.217,0,0,0,0,4.434h37.23a2.217,2.217,0,1,0,0-4.434Z" transform="translate(-273.389 -430.252)" fill="#06e9e3"/>
      </g>
    </g>
  </g>
</svg>
