<svg xmlns="http://www.w3.org/2000/svg" width="40.804" height="41"><path d="M34.859 5.958A20.321 20.321 0 002.882 30.472L0 41l10.77-2.825a20.3 20.3 0 009.709 2.473h.009a20.325 20.325 0 0014.371-34.69zM20.487 37.216h-.007a16.865 16.865 0 01-8.595-2.354l-.616-.366-6.391 1.677 1.706-6.231-.4-.639a16.886 16.886 0 1114.3 7.913zm9.263-12.647c-.507-.254-3-1.482-3.469-1.652s-.8-.254-1.142.254-1.311 1.652-1.608 1.99-.592.381-1.1.127a13.865 13.865 0 01-4.081-2.518 15.313 15.313 0 01-2.824-3.516c-.3-.508 0-.757.223-1.036a14.36 14.36 0 001.269-1.736.934.934 0 00-.043-.889c-.127-.254-1.142-2.753-1.565-3.769-.412-.989-.831-.856-1.142-.871-.3-.015-.634-.018-.973-.018a1.865 1.865 0 00-1.354.635 5.694 5.694 0 00-1.777 4.23 9.875 9.875 0 002.073 5.251c.254.339 3.58 5.466 8.672 7.665a29.058 29.058 0 002.894 1.07 6.959 6.959 0 003.2.2c.975-.146 3-1.228 3.427-2.414a4.242 4.242 0 00.3-2.414c-.127-.212-.465-.339-.973-.593zm0 0" fill="#454564" fill-rule="evenodd"/></svg>