<?xml version="1.0" standalone="no"?>
<!DOCTYPE svg PUBLIC "-//W3C//DTD SVG 20010904//EN"
 "http://www.w3.org/TR/2001/REC-SVG-20010904/DTD/svg10.dtd">
<svg version="1.0" xmlns="http://www.w3.org/2000/svg"
 width="400.000000pt" height="400.000000pt" viewBox="0 0 400.000000 400.000000"
 preserveAspectRatio="xMidYMid meet">
<metadata>
Created by potrace 1.14, written by Peter Selinger 2001-2017
</metadata>
<g transform="translate(0.000000,400.000000) scale(0.100000,-0.100000)"
fill="#000000" stroke="none">
<path d="M1858 3995 c-2 -2 -34 -6 -72 -9 -38 -3 -78 -8 -90 -11 -11 -2 -39
-7 -61 -10 -136 -19 -417 -118 -580 -205 -218 -116 -412 -280 -624 -529 -136
-159 -260 -393 -335 -631 -29 -91 -29 -91 -56 -224 -27 -136 -34 -218 -34
-381 1 -202 13 -304 58 -482 64 -252 183 -505 324 -693 74 -98 336 -360 432
-432 117 -87 410 -248 454 -248 7 0 16 -3 20 -8 4 -4 11 -7 14 -8 4 0 14 -4
22 -7 64 -27 275 -83 340 -92 189 -23 495 -23 656 0 169 26 436 117 604 207
67 36 220 133 260 164 276 217 493 481 620 759 73 158 152 409 165 521 24 207
23 503 -1 654 -40 247 -159 546 -310 775 -89 137 -312 371 -480 504 -172 137
-502 288 -736 337 -76 16 -181 34 -228 40 -52 6 -357 14 -362 9z m290 -1110
c207 -39 368 -127 507 -277 193 -208 268 -451 229 -746 -20 -158 -70 -276
-172 -403 -192 -243 -433 -359 -727 -353 -162 3 -271 30 -394 95 -255 136
-429 378 -477 661 -11 62 -13 211 -4 252 5 23 12 56 15 75 9 50 43 147 72 205
133 265 365 440 653 492 128 23 170 23 298 -1z"/>
</g>
</svg>
